<?xml version="1.0" encoding="utf-8"?>
<!-- Generator: Adobe Illustrator 26.0.3, SVG Export Plug-In . SVG Version: 6.00 Build 0)  -->
<svg version="1.1" id="Layer_1" xmlns="http://www.w3.org/2000/svg" xmlns:xlink="http://www.w3.org/1999/xlink" x="0px" y="0px"
	 viewBox="0 0 841.9 469.9" style="enable-background:new 0 0 841.9 469.9;" xml:space="preserve">
<style type="text/css">
	.st0{fill:#A8AAAD;}
	.st1{fill:#49522B;stroke:#282C20;stroke-width:0.5;stroke-miterlimit:10;}
	.st2{fill:#343D21;stroke:#282C20;stroke-width:0.5;stroke-miterlimit:10;}
	.st3{fill:none;}
	.st4{enable-background:new    ;}
	.st5{fill:#010101;}
	.st6{fill:#010101;stroke:#010101;stroke-width:0.5;stroke-miterlimit:10;}
	.st7{fill:none;stroke:#010101;stroke-width:0.5;stroke-miterlimit:10;}
	.st8{opacity:0.46;fill:#26AC4A;enable-background:new    ;}
	.st9{fill:#444E28;stroke:#282C20;stroke-width:0.5;stroke-miterlimit:10;}
	.st10{fill:#5A6336;stroke:#282C20;stroke-width:0.5;stroke-miterlimit:10;}
	.st11{fill:#5A6336;stroke:#282C20;stroke-width:0.25;stroke-miterlimit:10;}
</style>
<path class="st0" d="M678.4,424.8H168.7c-89.9,0-163.6-90.1-163.6-202.6v-15.9C5.2,94.9,78,3.6,168.7,3.6h509.7
	C768.3,3.6,842,93.7,842,206.2v15.9C842.2,333.6,768.3,424.8,678.4,424.8z"/>
<path class="st1" d="M65.4,211c0,0-9.4,106.8,5.3,155.1c7,23.3,108.3,14.7,108.3,14.7s56-85.9,51-136.2s-128-72.1-128-72.1
	S76.4,181.5,65.4,211z"/>
<path class="st2" d="M252,242.7c0,0,49.7,7.5,104.9,62c15.6,15.5,59,34.1,59,34.1l-12.8,20.2c0,0-164.7-37.8-208.4-98.8
	S162,192.8,162,192.8s25.5-31.2,60.9-13.9C241.8,188.4,252,242.7,252,242.7z"/>
<polygon class="st3" points="193,154.7 853.6,154.7 854.3,230.1 193.8,230.1 "/>
<g class="st4">
	<path class="st5" d="M299.5,143.1l6.1,1.8c0,5.4-1,9.7-2.9,12.9c-1.8,3.2-4.3,4.8-7.5,4.8c-4,0-6.9-2.2-8.8-6.5
		c-1.9-4.3-2.9-11-2.9-19.9c0-18.3,3.3-27.6,10-27.6c2.4,0,4.1,1.1,5.4,3.3h0.2v-2.6h5.9v16.9h-5.9c0-3.5-0.3-6.2-1.1-8.1
		c-0.8-1.9-1.9-2.9-3.2-2.9c-1.1,0-1.8,0.5-2.2,1.3c-0.5,1-0.8,2.7-1,5.4c-0.2,2.7-0.3,7-0.3,13.1c0,8.3,0.3,13.7,0.8,16.4
		c0.5,2.7,1.6,4,3.3,4c1.4,0,2.4-1,3-2.9C299.2,150.7,299.5,147.5,299.5,143.1z"/>
	<path class="st5" d="M319.7,162.5c-3.2,0-5.4-1.6-7-4.6c-1.4-3.2-2.2-8-2.2-14.5c0-6.5,0.8-11.5,2.2-14.5c1.4-3,3.8-4.6,7-4.6
		c6.2,0,9.2,6.4,9.2,19.1S325.9,162.5,319.7,162.5z M319.7,130.3c-1.1,0-1.8,0.8-2.2,2.6c-0.3,1.8-0.5,5.1-0.5,10.4
		c0,3.8,0.2,6.7,0.3,8.4c0.2,1.9,0.5,3,0.8,3.7s1,1,1.6,1c1.3,0,2.1-1,2.4-3c0.3-1.9,0.5-5.4,0.5-10c0-5.3-0.2-8.6-0.6-10.4
		C321.5,131.1,320.8,130.3,319.7,130.3z"/>
	<path class="st5" d="M332.8,161.7v-6.1h2.6v-24.4h-2.7v-6.1h8.8v3.2h0.2c1.4-2.4,3.2-3.7,5.3-3.7s3.7,1.3,4.9,3.7
		c1.6-2.4,3.5-3.7,5.7-3.7c4.3,0,6.5,3.3,6.5,9.9v20.9h2.6v6.1h-8.8v-26.8c0-1.6-0.2-2.6-0.5-3.2c-0.3-0.6-0.8-1-1.6-1
		c-0.8,0-1.6,0.3-2.2,1.1c-0.6,0.8-1,1.3-1,1.4v22.3h2.6v6.1h-8.6v-26.8c0-1.4-0.2-2.6-0.5-3.2c-0.3-0.6-0.8-1-1.6-1
		c-1.1,0-2.1,0.8-3,2.6v22.3h2.6v6.1h-11.2V161.7z"/>
	<path class="st5" d="M369.5,161.7v-6.1h2.9v-40.3h-2.9v-6.1h9.1v18.3h0.2c1.4-2.2,3.2-3.2,5.3-3.2c2.7,0,4.8,1.4,5.9,4.5
		c1.1,3,1.8,8.1,1.8,15.1c0,5.9-0.6,10.4-1.9,13.4c-1.3,3-3.2,4.6-5.7,4.6c-2.1,0-3.8-1.4-5.1-4.1h-0.2v3.7h-9.2V161.7z
		 M378.4,137.7v9.6c0,3,0.3,5.3,0.8,6.7c0.5,1.4,1.4,2.1,2.7,2.1c1.1,0,1.9-0.8,2.6-2.2c0.5-1.4,0.8-3.7,0.8-6.7v-6.2
		c0-4-0.3-6.9-0.8-8.4s-1.3-2.4-2.6-2.4C379.7,130,378.4,132.6,378.4,137.7z"/>
	<path class="st5" d="M417.8,155.7v6.1H409v-3.2h-0.2c-1.4,2.4-3.2,3.5-5.6,3.5c-2.1,0-4-1-5.3-3s-2.1-4.8-2.1-8.1
		c0-3.7,0.8-6.5,2.2-8.6c1.6-1.9,3.5-3,5.9-3c1.9,0,3.5,0.8,4.9,2.6v-6.2c0-2.4-0.3-4-0.8-4.6s-1.3-1-2.2-1c-2.1,0-3.2,1.6-3.3,4.6
		l-5.7-1.8c0.5-2.7,1.4-4.9,3.2-6.4c1.6-1.6,3.7-2.2,6.1-2.2c2.6,0,4.8,1,6.5,2.7c1.8,1.8,2.6,4.3,2.6,7.3v21.2h2.6V155.7z
		 M409,154.6v-8c-1-1.1-1.9-1.8-3-1.8c-2.4,0-3.5,1.9-3.5,5.9c0,3.8,1.1,5.7,3.5,5.7C407.1,156.5,408,155.8,409,154.6z"/>
	<path class="st5" d="M428.9,131.3v21.4c0,2.4,1,3.7,2.7,3.7c0.6,0,1.4-0.2,2.6-0.6v5.7c-1.4,0.5-3,0.8-4.8,0.8
		c-2.2,0-4-0.8-4.9-2.2c-1-1.4-1.6-3.8-1.6-7.2v-21.5h-3v-6.1h3v-5.9c2.1-1.4,4.1-3,6.1-4.8v10.7h4.1v6.1H428.9z"/>
	<path class="st5" d="M463.4,155.4v-39.7h-4v-6.4h12.1c4.3,0,7.5,1.4,9.9,4.3s3.7,6.9,3.7,12c0,4.9-1.1,8.9-3.3,11.8
		c-2.2,2.9-6.1,4.3-11.3,4.3v13.9h4.1v6.4h-15v-6.4h3.8V155.4z M470.2,115.7v19.6c1.6,0,2.9-0.2,3.8-0.5s1.9-1.3,2.6-2.7
		c0.6-1.4,1.1-3.5,1.1-6.5c0-3.8-0.6-6.4-1.9-7.8C474.5,116.3,472.8,115.7,470.2,115.7z"/>
	<path class="st5" d="M487,161.7v-6.1h3v-24.4h-3v-6.1h9.2v7.2h0.2c1.1-3,2.2-5.1,3.3-6.1c1.1-1,2.7-1.4,4.6-1.4v6.9
		c-5.4,0-8.1,3.2-8.1,9.7v14.2h3.5v6.1H487z"/>
	<path class="st5" d="M519.3,150.7l5.4,2.1c-0.8,3.2-1.9,5.6-3.5,7.2c-1.6,1.6-3.3,2.6-5.4,2.6c-3.2,0-5.6-1.4-7.2-4.5
		c-1.6-3-2.2-7.8-2.2-14.3c0-6.5,0.8-11.5,2.2-14.7c1.6-3.2,3.8-4.8,7.2-4.8c2.7,0,4.8,1.3,6.5,4c1.8,2.6,2.6,6.4,2.6,11.5v5.6h-12
		v1.6c0,3.3,0.2,5.7,0.6,7.3c0.5,1.6,1.3,2.4,2.4,2.4C517.9,156.5,519,154.6,519.3,150.7z M512.9,140.1h5.9v-3.2c0-4.5-1-6.9-3-6.9
		c-1.1,0-1.9,0.6-2.2,2.1c-0.5,1.3-0.6,3.5-0.6,6.4V140.1L512.9,140.1z"/>
	<path class="st5" d="M529.4,161.7v-12.6h5.7c0.2,4.8,1.1,7.3,2.9,7.3c1.4,0,2.1-1.1,2.1-3.2c0-1.8-0.3-3.2-1.1-4.1
		s-1.9-2.1-3.8-3.7c-2.2-1.8-3.7-3.5-4.6-5.3c-1-1.8-1.4-3.7-1.4-5.9c0-2.7,0.6-4.9,1.8-6.9c1.1-1.8,2.7-2.7,4.3-2.7
		c1.8,0,3.2,1.1,4.3,3.2h0.2v-2.7h5.7v12h-5.7c0-2.7-0.2-4.5-0.5-5.4c-0.3-1-1-1.4-1.9-1.4c-1.3,0-2.1,1-2.1,3c0,1.4,0.3,2.7,1,3.7
		s1.8,2.1,3.3,3.3c2.4,1.9,4.1,3.7,5.1,5.4c1,1.8,1.4,4,1.4,6.7c0,2.7-0.6,5.1-1.9,6.9c-1.3,1.8-2.7,2.7-4.6,2.7
		c-1.8,0-3.2-1.1-4.5-3.2h-0.2v2.7h-5.4V161.7z"/>
	<path class="st5" d="M550.3,161.7v-12.6h5.7c0.2,4.8,1.1,7.3,2.9,7.3c1.4,0,2.1-1.1,2.1-3.2c0-1.8-0.3-3.2-1.1-4.1
		c-0.6-1-1.9-2.1-3.8-3.7c-2.2-1.8-3.7-3.5-4.6-5.3c-1-1.8-1.4-3.7-1.4-5.9c0-2.7,0.6-4.9,1.8-6.9c1.1-1.8,2.7-2.7,4.3-2.7
		c1.8,0,3.2,1.1,4.3,3.2h0.2v-2.7h5.7v12h-5.7c0-2.7-0.2-4.5-0.6-5.4c-0.3-1-1-1.4-1.9-1.4c-1.3,0-2.1,1-2.1,3c0,1.4,0.3,2.7,1,3.7
		s1.8,2.1,3.3,3.3c2.4,1.9,4.1,3.7,5.1,5.4c1,1.8,1.4,4,1.4,6.7c0,2.7-0.6,5.1-1.9,6.9c-1.3,1.8-2.7,2.7-4.6,2.7
		c-1.8,0-3.2-1.1-4.5-3.2h-0.2v2.7h-5.3V161.7z"/>
	<path class="st5" d="M590.4,125.2v30.5h2.7v6.1h-8.9v-2.9h0c-1.4,2.2-3.2,3.3-5.3,3.3c-3.8,0-5.7-3-5.7-9.1v-21.8h-2.9v-6.1h8.9
		v26.9c0,1.4,0.2,2.6,0.5,3c0.3,0.6,0.8,1,1.6,1c0.8,0,1.6-0.3,2.1-1.1c0.6-0.8,1-1.3,1-1.4v-22.3h-3v-6.1H590.4z"/>
	<path class="st5" d="M596,161.7v-6.1h3v-24.4h-3v-6.1h9.2v7.2h0.2c1.1-3,2.2-5.1,3.3-6.1c1.1-1,2.7-1.4,4.6-1.4v6.9
		c-5.4,0-8.1,3.2-8.1,9.7v14.2h3.5v6.1H596z"/>
	<path class="st5" d="M628.5,150.7l5.4,2.1c-0.8,3.2-1.9,5.6-3.5,7.2c-1.6,1.8-3.3,2.6-5.4,2.6c-3.2,0-5.6-1.4-7.2-4.5
		c-1.6-3-2.2-7.8-2.2-14.3c0-6.5,0.8-11.5,2.2-14.7c1.6-3.2,3.8-4.8,7.2-4.8c2.7,0,4.8,1.3,6.5,4c1.8,2.6,2.6,6.4,2.6,11.5v5.6h-12
		v1.6c0,3.3,0.3,5.7,0.8,7.3c0.5,1.6,1.3,2.4,2.4,2.4C627.1,156.5,628.2,154.6,628.5,150.7z M622.2,140.1h5.9v-3.2
		c0-4.5-1-6.9-2.9-6.9c-1.1,0-1.9,0.6-2.2,2.1c-0.5,1.3-0.6,3.5-0.6,6.4v1.6H622.2z"/>
	<path class="st5" d="M663.1,162.1l-7.5-46.4h-2.9v-6.4h12.6v6.4h-3c1.9,10.4,3.2,20.7,4,31.4c1-10.7,2.4-21.2,4-31.4h-2.9v-6.4
		h11.6v6.4h-2.9c2.1,11,3.5,21.5,4.3,31.4c0.5-9.4,1.8-19.9,3.8-31.4h-2.9v-6.4h11.6v6.4h-2.7l-7.2,46.4h-5.6
		c-2.4-13.4-4-23.4-4.6-30.1c-0.3,4.9-1.8,15-4,30.1H663.1z"/>
	<path class="st5" d="M701.1,162.5c-3.2,0-5.4-1.6-7-4.6c-1.6-3-2.2-8-2.2-14.5c0-6.5,0.8-11.5,2.2-14.5c1.4-3,3.8-4.6,7-4.6
		c6.2,0,9.2,6.4,9.2,19.1C710.5,156.2,707.3,162.5,701.1,162.5z M701.1,130.3c-1.1,0-1.8,0.8-2.2,2.6c-0.3,1.8-0.5,5.1-0.5,10.4
		c0,3.8,0.2,6.7,0.3,8.4c0.2,1.9,0.5,3,0.8,3.7c0.3,0.6,1,1,1.6,1c1.3,0,2.1-1,2.4-3c0.3-1.9,0.5-5.4,0.5-10c0-5.3-0.2-8.6-0.6-10.4
		C702.8,131.1,702.2,130.3,701.1,130.3z"/>
	<path class="st5" d="M714,161.7v-6.1h3v-24.4h-3v-6.1h9.2v7.2h0.2c1.1-3,2.2-5.1,3.3-6.1c1.1-1,2.7-1.4,4.6-1.4v6.9
		c-5.4,0-8.1,3.2-8.1,9.7v14.2h3.5v6.1H714z"/>
	<path class="st5" d="M732.8,161.7v-6.1h2.4l4.1-12.3l-4.1-12.1h-2.4v-6.1h6.7l2.9,10h0.2l2.9-10h6.1v6.1h-2.4l-3.8,11.2l4.5,13.2
		h2.7v6.1h-6.9l-3.2-11.2H742l-3.3,11.2H732.8z"/>
</g>
<g class="st4">
	<path class="st5" d="M319.4,246.1l-5.7-32.4h-2.4v-4.5h9.6v4.5h-2.4c1.9,9.7,2.9,17.2,3,22.5h0.2c0.2-4.8,1.1-12.3,2.9-22.5h-2.4
		v-4.5h9.1v4.5h-2.6l-5.6,32.4H319.4z"/>
	<path class="st5" d="M338.5,238.1l3.8,1.4c-0.5,2.2-1.3,3.8-2.4,5.1c-1.1,1.1-2.4,1.8-3.8,1.8c-2.2,0-4-1.1-4.9-3.2
		c-1.1-2.1-1.6-5.4-1.6-10c0-4.6,0.5-8,1.6-10.2c1.1-2.2,2.7-3.3,4.9-3.3c1.9,0,3.3,1,4.6,2.7c1.1,1.9,1.8,4.5,1.8,8v3.8h-8.6v1.1
		c0,2.2,0.2,4,0.5,5.1c0.3,1.1,1,1.6,1.8,1.6C337.4,242.1,338.2,240.8,338.5,238.1z M333.9,230.6h4.1v-2.2c0-3.2-0.6-4.8-2.1-4.8
		c-0.8,0-1.3,0.5-1.6,1.4s-0.5,2.4-0.5,4.5L333.9,230.6L333.9,230.6z"/>
	<path class="st5" d="M351.1,224.6v15c0,1.8,0.6,2.6,1.9,2.6c0.5,0,1.1-0.2,1.8-0.5v4c-1,0.3-2.1,0.5-3.3,0.5
		c-1.6,0-2.7-0.5-3.5-1.6c-0.8-1.1-1.1-2.7-1.1-5.1v-15h-2.1v-4.1h2.1v-4.1c1.4-1,2.9-2.1,4.3-3.3v7.5h2.9v4.1h-2.9V224.6z"/>
	<path class="st5" d="M366.1,238.1l3.8,1.4c-0.5,2.2-1.3,3.8-2.4,5.1c-1.1,1.1-2.4,1.8-3.8,1.8c-2.2,0-4-1.1-4.9-3.2
		c-1.1-2.1-1.6-5.4-1.6-10c0-4.6,0.5-8,1.6-10.2c1.1-2.2,2.7-3.3,4.9-3.3c1.9,0,3.3,1,4.6,2.7c1.1,1.9,1.8,4.5,1.8,8v3.8h-8.3v1.1
		c0,2.2,0.2,4,0.5,5.1c0.3,1.1,1,1.6,1.8,1.6C365.2,242.1,366,240.8,366.1,238.1z M361.6,230.6h4.1v-2.2c0-3.2-0.6-4.8-2.1-4.8
		c-0.8,0-1.3,0.5-1.6,1.4s-0.5,2.4-0.5,4.5L361.6,230.6L361.6,230.6z"/>
	<path class="st5" d="M372.6,245.8v-4.1h2.1v-17.1h-2.1v-4.1h6.4v4.9h0.2c0.8-2.1,1.6-3.5,2.2-4.1c0.8-0.6,1.9-1.1,3.2-1.1v4.8
		c-3.8,0-5.6,2.2-5.6,6.9v9.9h2.4v4.1L372.6,245.8L372.6,245.8z"/>
	<path class="st5" d="M401.5,241.5v4.1h-6.2v-2.2h-0.2c-1,1.6-2.2,2.6-3.8,2.6c-1.4,0-2.7-0.8-3.7-2.2c-1-1.4-1.4-3.3-1.4-5.7
		c0-2.6,0.5-4.6,1.6-5.9c1.1-1.4,2.4-2.1,4.1-2.1c1.3,0,2.6,0.6,3.3,1.8v-4.5c0-1.8-0.2-2.7-0.6-3.2c-0.3-0.5-1-0.6-1.6-0.6
		c-1.4,0-2.2,1.1-2.4,3.3l-4-1.1c0.3-1.9,1-3.3,2.2-4.5c1.1-1.1,2.6-1.6,4.3-1.6s3.3,0.6,4.5,1.9c1.3,1.3,1.8,3,1.8,5.1v14.8
		L401.5,241.5L401.5,241.5z M395.4,240.7v-5.6c-0.6-0.8-1.3-1.1-2.1-1.1c-1.6,0-2.4,1.4-2.4,4.1s0.8,4,2.4,4
		C394,242.1,394.8,241.6,395.4,240.7z"/>
	<path class="st5" d="M403.4,245.8v-4.1h1.8v-17.1h-1.9v-4.1h6.2v2.1h0.2c1-1.6,2.2-2.4,3.7-2.4c1.3,0,2.2,0.5,3,1.6
		c0.8,1.1,1.1,2.7,1.1,4.6v15.3h1.8v4.1h-6.1v-18.8c0-1-0.2-1.8-0.3-2.2c-0.2-0.5-0.5-0.6-1.1-0.6c-0.6,0-1.1,0.3-1.6,0.8
		c-0.5,0.5-0.6,1-0.6,1v15.5h1.8v4.1h-7.8V245.8z"/>
	<path class="st5" d="M453.5,227.7c0,12.4-2.7,18.7-8,18.7c-2.7,0-4.8-1.6-6.1-4.6c-1.3-3-1.9-7.8-1.9-14c0-4.1,0.3-7.7,1-10.5
		c0.6-2.9,1.6-4.9,2.7-6.4c1.3-1.4,2.7-2.1,4.3-2.1c2.6,0,4.5,1.6,5.9,4.8C452.7,216.6,453.5,221.4,453.5,227.7z M442.8,227.9
		c0,5.3,0.2,8.9,0.5,10.8c0.3,1.9,1.1,2.9,2.1,2.9c1,0,1.8-1,2.1-2.9c0.3-1.9,0.5-5.4,0.5-10.7c0-5.7-0.2-9.6-0.5-11.5
		c-0.3-1.9-1.1-2.9-2.1-2.9c-1.1,0-1.8,1.1-2.2,3.2C443,218.8,442.8,222.5,442.8,227.9z"/>
	<path class="st5" d="M461.8,246.1l-4.3-21.7h-1.8v-4h7.5v4h-1.6l2.2,13.7l2.7-17.9h4l3.2,17.9l1.9-13.7h-1.8v-4h7.5v4h-1.8
		l-4.1,21.7h-3.8l-3.2-17.9l-2.9,17.9H461.8z"/>
	<path class="st5" d="M483.1,245.8v-4.1h1.8v-17.1H483v-4.1h6.2v2.1h0.2c1-1.6,2.2-2.4,3.7-2.4c1.3,0,2.2,0.5,3,1.6
		c0.8,1.1,1.1,2.7,1.1,4.6v15.3h1.8v4.1h-6.1v-18.8c0-1-0.2-1.8-0.3-2.2c-0.2-0.5-0.5-0.6-1.1-0.6c-0.6,0-1.1,0.3-1.6,0.8
		c-0.5,0.5-0.6,1-0.6,1v15.5h1.8v4.1h-7.8V245.8z"/>
	<path class="st5" d="M510.4,238.1l3.8,1.4c-0.5,2.2-1.3,3.8-2.4,5.1c-1.1,1.3-2.4,1.8-3.8,1.8c-2.2,0-4-1.1-4.9-3.2
		c-1.1-2.1-1.6-5.4-1.6-10c0-4.6,0.5-8,1.6-10.2c1.1-2.2,2.7-3.3,4.9-3.3c1.9,0,3.3,1,4.5,2.7c1.1,1.9,1.8,4.5,1.8,8v3.8h-8.3v1.1
		c0,2.2,0.2,4,0.5,5.1c0.3,1.1,1,1.6,1.8,1.6C509.4,242.1,510.2,240.8,510.4,238.1z M505.9,230.6h4.1v-2.2c0-3.2-0.6-4.8-2.1-4.8
		c-0.8,0-1.3,0.5-1.6,1.4s-0.5,2.4-0.5,4.5L505.9,230.6L505.9,230.6z"/>
	<path class="st5" d="M532.6,245.8h-6.4v-2.6H526c-0.5,1-1,1.6-1.4,2.1c-0.5,0.5-1.3,0.8-2.1,0.8c-1.8,0-3-1.1-4-3.3
		c-1-2.2-1.4-5.3-1.4-9.4c0-4.9,0.5-8.4,1.3-10.5c0.8-2.1,2.2-3.2,4.1-3.2c1.4,0,2.7,0.8,3.7,2.2h0.2v-8.6h-2.7v-4.1h7v32.4h2.1v4.3
		H532.6z M526.2,233.6v-4c0-2.1-0.2-3.5-0.5-4.5c-0.3-1-1-1.4-1.8-1.4c-1,0-1.4,0.5-1.8,1.6c-0.3,1.1-0.5,3-0.5,5.9v5.7
		c0,3.2,0.8,4.8,2.2,4.8c1,0,1.6-0.5,1.9-1.6C526.2,239.1,526.2,237,526.2,233.6z"/>
	<path class="st5" d="M565.7,241.5v4.1h-6.2v-2.2h-0.2c-1,1.6-2.2,2.6-3.8,2.6c-1.4,0-2.7-0.8-3.7-2.2c-1-1.4-1.4-3.3-1.4-5.7
		c0-2.6,0.5-4.6,1.6-5.9c1.1-1.4,2.4-2.1,4.1-2.1c1.3,0,2.6,0.6,3.3,1.8v-4.5c0-1.8-0.2-2.7-0.6-3.2c-0.5-0.5-1-0.6-1.6-0.6
		c-1.4,0-2.2,1.1-2.4,3.3l-4-1.1c0.3-1.9,1-3.3,2.2-4.5c1.1-1.1,2.6-1.6,4.3-1.6c1.8,0,3.3,0.6,4.5,1.9c1.3,1.3,1.8,3,1.8,5.1v14.8
		L565.7,241.5L565.7,241.5z M559.7,240.7v-5.6c-0.6-0.8-1.3-1.1-2.1-1.1c-1.6,0-2.4,1.4-2.4,4.1s0.8,4,2.4,4
		C558.2,242.1,559,241.6,559.7,240.7z"/>
	<path class="st5" d="M567.6,245.8v-4.1h1.8v-17.1h-1.9v-4.1h6.2v2.1h0.2c1-1.6,2.2-2.4,3.7-2.4c1.3,0,2.2,0.5,3,1.6
		c0.8,1.1,1.1,2.7,1.1,4.6v15.3h1.8v4.1h-6.1v-18.8c0-1-0.2-1.8-0.3-2.2c-0.2-0.5-0.5-0.6-1.1-0.6c-0.6,0-1.1,0.3-1.6,0.8
		c-0.5,0.5-0.6,1-0.6,1v15.5h1.8v4.1h-7.8V245.8z"/>
	<path class="st5" d="M601,245.8h-6.4v-2.6h-0.2c-0.5,1-1,1.6-1.4,2.1c-0.5,0.5-1.3,0.8-2.1,0.8c-1.8,0-3-1.1-4-3.3
		s-1.4-5.3-1.4-9.4c0-4.9,0.5-8.4,1.3-10.5c0.8-2.1,2.2-3.2,4.1-3.2c1.4,0,2.7,0.8,3.7,2.2h0.2v-8.6H592v-4.1h7v32.4h2.1v4.3H601z
		 M594.6,233.6v-4c0-2.1-0.2-3.5-0.5-4.5c-0.3-1-1-1.4-1.8-1.4c-1,0-1.4,0.5-1.8,1.6c-0.3,1.1-0.5,3-0.5,5.9v5.7
		c0,3.2,0.8,4.8,2.2,4.8c1,0,1.6-0.5,1.9-1.6C594.6,239.1,594.6,237,594.6,233.6z"/>
	<path class="st5" d="M635.1,227.7c0,12.4-2.7,18.7-8,18.7c-2.7,0-4.8-1.6-6.1-4.6c-1.3-3-1.9-7.8-1.9-14c0-4.1,0.3-7.7,1-10.5
		c0.6-2.9,1.6-4.9,2.7-6.4c1.3-1.4,2.7-2.1,4.3-2.1c2.6,0,4.5,1.6,5.9,4.8C634.4,216.6,635.1,221.4,635.1,227.7z M624.5,227.9
		c0,5.3,0.2,8.9,0.5,10.8c0.3,1.9,1.1,2.9,2.1,2.9c1,0,1.8-1,2.1-2.9c0.3-1.9,0.5-5.4,0.5-10.7c0-5.7-0.2-9.6-0.5-11.5
		s-1.1-2.9-2.1-2.9c-1.1,0-1.8,1.1-2.2,3.2C624.7,218.8,624.5,222.5,624.5,227.9z"/>
	<path class="st5" d="M637.6,220.2h6.4v2.6h0.2c1-1.9,2.1-2.9,3.5-2.9c1.9,0,3.2,1.1,4.1,3.3c1,2.2,1.3,5.7,1.3,10.4
		c0,4.1-0.3,7.2-1.1,9.4s-2.2,3.2-4.1,3.2c-1.4,0-2.7-0.8-3.7-2.2H644v6.1h2.4v4.1h-8.6v-4.1h2.1v-25.7h-2.1v-4.1H637.6z
		 M643.8,232.4v4c0,2.1,0.2,3.7,0.5,4.6c0.3,1,1,1.4,1.8,1.4c1,0,1.6-0.5,1.8-1.6c0.3-1.1,0.5-2.7,0.5-4.9v-3.5c0-3-0.2-5.1-0.5-6.2
		c-0.3-1.3-1-1.8-1.8-1.8c-1,0-1.6,0.6-1.9,2.1C644,227.6,643.8,229.7,643.8,232.4z"/>
	<path class="st5" d="M664.9,238.1l3.8,1.4c-0.5,2.2-1.3,3.8-2.4,5.1c-1.1,1.1-2.4,1.8-3.8,1.8c-2.2,0-4-1.1-4.9-3.2
		s-1.6-5.4-1.6-10c0-4.6,0.5-8,1.6-10.2c1.1-2.2,2.7-3.3,4.9-3.3c1.9,0,3.3,1,4.6,2.7c1.1,1.9,1.8,4.5,1.8,8v3.8h-8.3v1.1
		c0,2.2,0.2,4,0.5,5.1c0.3,1.1,1,1.6,1.8,1.6C663.9,242.1,664.7,240.8,664.9,238.1z M660.4,230.6h4.1v-2.2c0-3.2-0.6-4.8-2.1-4.8
		c-0.8,0-1.3,0.5-1.6,1.4c-0.3,1-0.5,2.4-0.5,4.5V230.6z"/>
	<path class="st5" d="M671.4,245.8v-4.1h2.1v-17.1h-2.1v-4.1h6.4v4.9h0.2c0.8-2.1,1.6-3.5,2.2-4.1c0.8-0.6,1.9-1.1,3.2-1.1v4.8
		c-3.8,0-5.6,2.2-5.6,6.9v9.9h2.4v4.1L671.4,245.8L671.4,245.8z"/>
	<path class="st5" d="M700.3,241.5v4.1h-6.1v-2.2h-0.2c-1,1.6-2.2,2.6-3.8,2.6c-1.4,0-2.7-0.8-3.7-2.2c-1-1.4-1.4-3.3-1.4-5.7
		c0-2.6,0.5-4.6,1.6-5.9c1.1-1.4,2.4-2.1,4.1-2.1c1.3,0,2.6,0.6,3.3,1.8v-4.5c0-1.8-0.2-2.7-0.6-3.2c-0.5-0.5-1-0.6-1.6-0.6
		c-1.4,0-2.2,1.1-2.4,3.3l-4-1.1c0.3-1.9,1-3.3,2.2-4.5c1.1-1.1,2.6-1.6,4.3-1.6c1.8,0,3.3,0.6,4.5,1.9c1.3,1.3,1.8,3,1.8,5.1v14.8
		L700.3,241.5L700.3,241.5z M694.2,240.7v-5.6c-0.6-0.8-1.3-1.1-2.1-1.1c-1.6,0-2.4,1.4-2.4,4.1s0.8,4,2.4,4
		C692.8,242.1,693.6,241.6,694.2,240.7z"/>
	<path class="st5" d="M708.1,224.6v15c0,1.8,0.6,2.6,1.9,2.6c0.5,0,1.1-0.2,1.8-0.5v4c-1,0.3-2.1,0.5-3.3,0.5
		c-1.6,0-2.7-0.5-3.5-1.6c-0.8-1.1-1.1-2.7-1.1-5.1v-15h-2.1v-4.1h2.1v-4.1c1.4-1,2.9-2.1,4.3-3.3v7.5h2.9v4.1h-2.9V224.6z"/>
	<path class="st5" d="M723.2,238.1l3.8,1.4c-0.5,2.2-1.3,3.8-2.4,5.1c-1.1,1.3-2.4,1.8-3.8,1.8c-2.2,0-4-1.1-4.9-3.2
		c-1.1-2.1-1.6-5.4-1.6-10c0-4.6,0.5-8,1.6-10.2c1.1-2.2,2.7-3.3,4.9-3.3c1.9,0,3.3,1,4.6,2.7c1.1,1.9,1.8,4.5,1.8,8v3.8h-8.3v1.1
		c0,2.2,0.2,4,0.5,5.1c0.3,1.1,1,1.6,1.8,1.6C722.3,242.1,723.1,240.8,723.2,238.1z M718.8,230.6h4.1v-2.2c0-3.2-0.6-4.8-2.1-4.8
		c-0.8,0-1.3,0.5-1.6,1.4c-0.3,1-0.5,2.4-0.5,4.5V230.6z"/>
	<path class="st5" d="M745.4,245.8H739v-2.6h-0.2c-0.5,1-1,1.6-1.4,2.1c-0.5,0.5-1.3,0.8-2.1,0.8c-1.8,0-3-1.1-4-3.3
		s-1.4-5.3-1.4-9.4c0-4.9,0.5-8.4,1.3-10.5c0.8-2.1,2.2-3.2,4.1-3.2c1.4,0,2.7,0.8,3.7,2.2h0.2v-8.6h-2.7v-4.1h7v32.4h2.1v4.3H745.4
		z M739,233.6v-4c0-2.1-0.2-3.5-0.5-4.5c-0.3-1-1-1.4-1.8-1.4c-1,0-1.4,0.5-1.8,1.6c-0.3,1.1-0.5,3-0.5,5.9v5.7
		c0,3.2,0.8,4.8,2.2,4.8c1,0,1.6-0.5,1.9-1.6C738.9,239.2,739,237,739,233.6z"/>
</g>
<g>
	<polyline class="st5" points="669.7,458.1 464.2,374.3 462.7,378.4 406.4,355 408,351.3 345.1,325.8 350.8,315.3 411.7,341.7 
		413.3,337.7 469.6,361.7 468.5,365 673,449.5 	"/>
	<polyline class="st5" points="673,449.7 675.1,450.5 675.7,449.3 684.8,452.5 684,454.8 684,454.8 685.4,449.8 693.7,453.2 
		687.4,469.9 679.5,466.6 681.3,461.3 681.3,461.3 680.2,464.6 670.6,460.5 671.1,458.9 669.7,458.3 	"/>
	<g>
		<path class="st6" d="M203.2,334.6l-31.4,51.7c0,0-6.5,0.3-15.9,1.9c-10.7,1.9-4.6,9.1-4.6,9.1s9.6,5.4,24.1,11.2l36.8-58.4
			c0,0,8.3-14.7,22.2-21.4L207,377.9l6.1,2.9c3.7,1.8,8.1,0.3,10-3.7l10.2-17.7c0,0,10.2-23,27.6-17.4c17.4,5.6,17.4,5.6,17.4,5.6
			s11.3-0.2,13.1-6.1c1.8-5.9,2.7-18.3,2.7-18.3l45.1,18l12.9-27.6c0,0,5.1-8.8-5.6-15.3c-2.6-1.8-34.1-16.9-66.8-28.2l-43.4-16.7
			c0,0-31.9,5.6-14.8,35.1L203.2,334.6z"/>
		<polyline class="st7" points="339.8,337.3 328.6,361.2 231.2,398.8 191.4,379.8 176.2,403.9 		"/>
	</g>
	<polygon class="st8" points="271.7,302.7 266.2,296.1 257.5,297.4 262,290.1 258.7,282.1 266.5,283.9 272.8,277.5 273.6,286.3 
		281.1,289.9 273.3,293.9 	"/>
	<polygon class="st8" points="301.4,312.9 295.8,306.8 287.2,308.1 291.7,300.4 288.2,292.8 296.1,294.1 302.5,288 303.3,296.5 
		310.8,300.6 303,304.4 	"/>
	<polygon class="st8" points="329.6,323.1 324.2,316.5 316.1,318 320.4,310.6 317,302.7 324.8,304.4 331.4,298 332,306.8 
		339.2,310.3 331.4,314.1 	"/>
	<polygon class="st8" points="243,292 237.5,285.9 229.3,287.2 233.5,279.4 230.3,271.9 238.3,273.3 244.6,267.3 245.3,276.2 
		252.4,279.6 244.6,283.5 	"/>
</g>
<path class="st9" d="M135.3,101c0,0,3.3-28.9,3.3-38.4s9.2-21.5,9.2-21.5s19.8-26.5,66.8-17.7c35.1,6.5,41.3,44,41.3,44l0.5,3.3
	c0,0,8.3,4.8,8.6,6.4c0.3,1.8-0.5,3.3-0.5,3.3s-6.7,5.7-15.8,5.1c-9.1-0.6-5.7,0.3-5.7,0.3l-2.2,5.6v4.1c0,0,4.8,10.4,7.7,13.4
	c2.9,3,0.6,7.2,0.6,7.2s-4.3,1.6-7,0.3c0,0-1.3,5.3-1,6.9c0.3,1.6,0.8,2.4,0.5,3.2c-0.5,1-1.3,1.6-1.3,1.6l0,0c0,0,1.4,0.8,0.5,2.4
	c-1,1.6-3.2,1.8-3.2,1.8s-2.4,1.8-1.6,4.8s1.4,6.9-0.2,9.1c-1.6,2.2-9.7,4.9-16.7,4.3c-7-0.6-7-0.6-7-0.6s0.2,6.5-3.5,9.2
	c-3.7,2.7-2.4,10.2-2.4,10.2l9.6,27.9l-48.6-23.6l-18.8-29.8c0,0,3.8-6.7,7-17.5c3.2-10.8-1.8-17.7-1.8-17.7L135.3,101z"/>
<path class="st10" d="M130.2,137.5c0,0-33.8-5.4-52.8,29.3s-29.3,86.4-29.3,86.4l-2.4,17.1c0,0-5.3,13.4-4,21.5
	c1.3,8.1,7.8,24.1,16.4,32.8c8.6,8.8,14.7,9.7,14.7,9.7s5.6,22,18.2,24.4c12.6,2.4,33.6-1.6,46.9-7c13.2-5.4,70.5-11.2,70.5-11.2
	l11.2-3c0,0,5.6,1.8,8.1,4.6c2.6,2.9,13.6,7.3,13.6,7.3l12.1,1.1c0,0,6.7-1,8.3-2.2c1.6-1.3,4.3-4.6,4.3-4.6l0.8-4.1
	c0,0,2.4-1.1,3.2-3c0.8-1.9,0-4.6,0-4.6l2.1-4.8l2.9-2.1l23.1,11.2l4-4c0,0-0.3-5.1-1.4-5.4c-1.3-0.3-32.2-19.9-33-20.6
	c-0.8-0.6-7.7-10.8-15.9-10.7c-8.4,0-36.3,5.9-36.3,5.9s-35.6-3.2-45.4-4.1c-10.7-1-33.8-3-33.8-3c-0.3-2.7-4.1-11-4.1-11
	c3-7.8,9.4-17.7,8.1-30.6c-1.6-15.3-0.3-29.8-0.3-29.8s-1.3,12.9,0.3,29.8c0.6,7,0.3,11.8-8.1,30.6c0,0,3.8,8.8,4.1,11l79.2,7.2
	l4.3-12.8l-3.3-9.2c0,0-9.2-19.8,19.1-27.7c1.9-0.5,0.2-13.1,0.2-13.1s4-7.5,2.4-13.1c-1.4-5.6-12.3-31.7-12.3-31.7l-14.7-13.1
	l-4.8-2.1c0,0-24.4,0.3-27.9-2.1c-3.5-2.4-29.7-34.6-30.5-35.1C147.1,141,130.2,137.5,130.2,137.5z"/>
<path class="st11" d="M420.6,341.4c0,0,9.6-6.9,13.1-2.9c3.7,4.1,10.8,7.2,10.7,7c0,0-1.1,3.7-8.1,3.5l-7.7-3.3L420.6,341.4z"/>
<path class="st10" d="M410.8,357c0,0,4.1,1.8,10,2.6c0.8,0.2,5.7-1.1,4.9-4.6c-0.3-1.6-0.6-6.5-0.8-6.9c-2.4-2.6-2.2-4.9-1.9-5.4
	c2.9-3.2,6.1,3,7.2,6.4c0.8,2.1,1.8,9.9,1.8,9.9s0.8-0.3,0-6.1c-0.3-2.1-1.6-7.2-1.1-8.6c0.3-1.3,2.1-1.1,2.6-1
	c1.3,0.3,2.9,0.5,3.8,4.5c0.3,1.4,1.6,5.9,1.6,5.9s0.5,5.6,0.8,7.2c0.2,0.8,0.5-5.6-0.3-10.4c-0.2-1.3-1.6-4.5-0.6-4.6
	c0,0,1-0.6,1.6-0.5c1.3,0.2,1.8-0.3,2.9,2.2c1.9,4.9,3.2,8.8,2.9,12.9c-0.5,7,0.8-5.9,0.8-5.9s-1.8-4.3,0-4.6
	c1.3-0.3,4.9,5.1,4.9,5.1s1,2.9,1.1,6.9c0,0.5,0.5,4.9,0.3,5.4c-0.8,4.1-1,4.6-1.3,5.4c-1,2.4-2.9,2.4-3.8,1.8
	c-0.8-0.5-2.2-1.4-2.6-1.4c-1.4,0.3-2.1,1-3.5,1c-2.2-0.2-3.5-1.3-3.5-1.3s-4.3,1.6-7.5-1.9c0,0-4.8,1.4-9.2-2.2
	c-6.7-5.7-18.3-9.4-17.9-10c0.8-1.1,2.7-4.3,2.7-4.3L410.8,357z"/>
<path class="st10" d="M264.4,76.4c0,0,1.1,1.8,0.5,3.2c-0.8,1.8-3.7,3.2-4.9,3c-12.1-1.6-43.4-7.2-57.1,2.4c0,0-1.6,10.4-7.8,14
	c-6.2,3.7-16.7,9.1-16.7,9.1l-27.6-3.7l-15.3-3.3c0,0,3-25.3,4.3-45.3c1.1-16.7,33.6-34.4,50.7-34.1C263,22.7,247.2,62.1,264.4,76.4
	z"/>
</svg>
