<?xml version="1.0" encoding="utf-8"?>
<!-- Generator: Adobe Illustrator 26.0.3, SVG Export Plug-In . SVG Version: 6.00 Build 0)  -->
<svg version="1.1" id="Layer_1" xmlns="http://www.w3.org/2000/svg" xmlns:xlink="http://www.w3.org/1999/xlink" x="0px" y="0px"
	 viewBox="0 0 841.9 595.3" style="enable-background:new 0 0 841.9 595.3;" xml:space="preserve">
<style type="text/css">
	.st0{fill:#A8AAAD;}
	.st1{fill:#49522B;stroke:#282C20;stroke-width:0.5;stroke-miterlimit:10;}
	.st2{fill:#343D21;stroke:#282C20;stroke-width:0.5;stroke-miterlimit:10;}
	.st3{fill:none;}
	.st4{enable-background:new    ;}
	.st5{fill:#010101;}
	.st6{fill:#010101;stroke:#010101;stroke-width:0.5;stroke-miterlimit:10;}
	.st7{fill:none;stroke:#010101;stroke-width:0.5;stroke-miterlimit:10;}
	.st8{opacity:0.46;fill:#26AC4A;enable-background:new    ;}
	.st9{fill:#444E28;stroke:#282C20;stroke-width:0.5;stroke-miterlimit:10;}
	.st10{fill:#5A6336;stroke:#282C20;stroke-width:0.5;stroke-miterlimit:10;}
	.st11{fill:#5A6336;stroke:#282C20;stroke-width:0.25;stroke-miterlimit:10;}
</style>
<path class="st0" d="M583.1,414.1H263.4c-56.4,0-102.6-56.5-102.6-127.1v-10c0-69.8,45.7-127.1,102.6-127.1h319.7
	c56.4,0,102.6,56.5,102.6,127.1v10C685.8,356.9,639.5,414.1,583.1,414.1z"/>
<path class="st1" d="M198.6,280c0,0-5.9,67,3.3,97.3c4.4,14.6,67.9,9.2,67.9,9.2s35.1-53.9,32-85.4s-80.3-45.2-80.3-45.2
	S205.5,261.5,198.6,280z"/>
<path class="st2" d="M315.6,299.9c0,0,31.2,4.7,65.8,38.9c9.8,9.7,37,21.4,37,21.4l-8,12.7c0,0-103.3-23.7-130.7-62
	s-20.5-42.3-20.5-42.3s16-19.6,38.2-8.7C309.2,265.8,315.6,299.9,315.6,299.9z"/>
<polygon class="st3" points="278.6,244.7 693,244.7 693.4,292 279.1,292 "/>
<g class="st4">
	<path class="st5" d="M345.4,237.4l3.8,1.1c0,3.4-0.6,6.1-1.8,8.1c-1.1,2-2.7,3-4.7,3c-2.5,0-4.3-1.4-5.5-4.1
		c-1.2-2.7-1.8-6.9-1.8-12.5c0-11.5,2.1-17.3,6.3-17.3c1.5,0,2.6,0.7,3.4,2.1h0.1v-1.6h3.7v10.6h-3.7c0-2.2-0.2-3.9-0.7-5.1
		c-0.5-1.2-1.2-1.8-2-1.8c-0.7,0-1.1,0.3-1.4,0.8c-0.3,0.6-0.5,1.7-0.6,3.4c-0.1,1.7-0.2,4.4-0.2,8.2c0,5.2,0.2,8.6,0.5,10.3
		c0.3,1.7,1,2.5,2.1,2.5c0.9,0,1.5-0.6,1.9-1.8C345.2,242.2,345.4,240.2,345.4,237.4z"/>
	<path class="st5" d="M358.1,249.6c-2,0-3.4-1-4.4-2.9c-0.9-2-1.4-5-1.4-9.1c0-4.1,0.5-7.2,1.4-9.1c0.9-1.9,2.4-2.9,4.4-2.9
		c3.9,0,5.8,4,5.8,12C363.9,245.6,362,249.6,358.1,249.6z M358.1,229.4c-0.7,0-1.1,0.5-1.4,1.6c-0.2,1.1-0.3,3.2-0.3,6.5
		c0,2.4,0.1,4.2,0.2,5.3c0.1,1.2,0.3,1.9,0.5,2.3c0.2,0.4,0.6,0.6,1,0.6c0.8,0,1.3-0.6,1.5-1.9c0.2-1.2,0.3-3.4,0.3-6.3
		c0-3.3-0.1-5.4-0.4-6.5S358.8,229.4,358.1,229.4z"/>
	<path class="st5" d="M366.3,249.1v-3.8h1.6V230h-1.7v-3.8h5.5v2h0.1c0.9-1.5,2-2.3,3.3-2.3c1.3,0,2.3,0.8,3.1,2.3
		c1-1.5,2.2-2.3,3.6-2.3c2.7,0,4.1,2.1,4.1,6.2v13.1h1.6v3.8H382v-16.8c0-1-0.1-1.6-0.3-2c-0.2-0.4-0.5-0.6-1-0.6
		c-0.5,0-1,0.2-1.4,0.7c-0.4,0.5-0.6,0.8-0.6,0.9v14h1.6v3.8h-5.4v-16.8c0-0.9-0.1-1.6-0.3-2c-0.2-0.4-0.5-0.6-1-0.6
		c-0.7,0-1.3,0.5-1.9,1.6v14h1.6v3.8H366.3z"/>
	<path class="st5" d="M389.3,249.1v-3.8h1.8V220h-1.8v-3.8h5.7v11.5h0.1c0.9-1.4,2-2,3.3-2c1.7,0,3,0.9,3.7,2.8s1.1,5.1,1.1,9.5
		c0,3.7-0.4,6.5-1.2,8.4c-0.8,1.9-2,2.9-3.6,2.9c-1.3,0-2.4-0.9-3.2-2.6h-0.1v2.3H389.3z M394.9,234v6c0,1.9,0.2,3.3,0.5,4.2
		s0.9,1.3,1.7,1.3c0.7,0,1.2-0.5,1.6-1.4c0.3-0.9,0.5-2.3,0.5-4.2v-3.9c0-2.5-0.2-4.3-0.5-5.3c-0.3-1-0.8-1.5-1.6-1.5
		C395.7,229.2,394.9,230.8,394.9,234z"/>
	<path class="st5" d="M419.6,245.3v3.8h-5.5v-2H414c-0.9,1.5-2,2.2-3.5,2.2c-1.3,0-2.5-0.6-3.3-1.9s-1.3-3-1.3-5.1
		c0-2.3,0.5-4.1,1.4-5.4c1-1.2,2.2-1.9,3.7-1.9c1.2,0,2.2,0.5,3.1,1.6v-3.9c0-1.5-0.2-2.5-0.5-2.9s-0.8-0.6-1.4-0.6
		c-1.3,0-2,1-2.1,2.9l-3.6-1.1c0.3-1.7,0.9-3.1,2-4c1-1,2.3-1.4,3.8-1.4c1.6,0,3,0.6,4.1,1.7c1.1,1.1,1.6,2.7,1.6,4.6v13.3H419.6z
		 M414.1,244.6v-5c-0.6-0.7-1.2-1.1-1.9-1.1c-1.5,0-2.2,1.2-2.2,3.7c0,2.4,0.7,3.6,2.2,3.6C412.9,245.8,413.5,245.4,414.1,244.6z"/>
	<path class="st5" d="M426.6,230v13.4c0,1.5,0.6,2.3,1.7,2.3c0.4,0,0.9-0.1,1.6-0.4v3.6c-0.9,0.3-1.9,0.5-3,0.5
		c-1.4,0-2.5-0.5-3.1-1.4c-0.6-0.9-1-2.4-1-4.5V230h-1.9v-3.8h1.9v-3.7c1.3-0.9,2.6-1.9,3.8-3v6.7h2.6v3.8H426.6z"/>
	<path class="st5" d="M448.2,245.1v-24.9h-2.5v-4h7.6c2.7,0,4.7,0.9,6.2,2.7c1.5,1.8,2.3,4.3,2.3,7.5c0,3.1-0.7,5.6-2.1,7.4
		c-1.4,1.8-3.8,2.7-7.1,2.7v8.7h2.6v4h-9.4v-4H448.2z M452.5,220.2v12.3c1,0,1.8-0.1,2.4-0.3c0.6-0.2,1.2-0.8,1.6-1.7
		c0.4-0.9,0.7-2.2,0.7-4.1c0-2.4-0.4-4-1.2-4.9C455.2,220.6,454.1,220.2,452.5,220.2z"/>
	<path class="st5" d="M463,249.1v-3.8h1.9V230H463v-3.8h5.8v4.5h0.1c0.7-1.9,1.4-3.2,2.1-3.8c0.7-0.6,1.7-0.9,2.9-0.9v4.3
		c-3.4,0-5.1,2-5.1,6.1v8.9h2.2v3.8H463z"/>
	<path class="st5" d="M483.3,242.2l3.4,1.3c-0.5,2-1.2,3.5-2.2,4.5s-2.1,1.6-3.4,1.6c-2,0-3.5-0.9-4.5-2.8c-1-1.9-1.4-4.9-1.4-9
		c0-4.1,0.5-7.2,1.4-9.2c1-2,2.4-3,4.5-3c1.7,0,3,0.8,4.1,2.5c1.1,1.6,1.6,4,1.6,7.2v3.5h-7.5v1c0,2.1,0.1,3.6,0.4,4.6
		c0.3,1,0.8,1.5,1.5,1.5C482.4,245.8,483.1,244.6,483.3,242.2z M479.3,235.5h3.7v-2c0-2.8-0.6-4.3-1.9-4.3c-0.7,0-1.2,0.4-1.4,1.3
		c-0.3,0.8-0.4,2.2-0.4,4V235.5z"/>
	<path class="st5" d="M489.6,249.1v-7.9h3.6c0.1,3,0.7,4.6,1.8,4.6c0.9,0,1.3-0.7,1.3-2c0-1.1-0.2-2-0.7-2.6s-1.2-1.3-2.4-2.3
		c-1.4-1.1-2.3-2.2-2.9-3.3c-0.6-1.1-0.9-2.3-0.9-3.7c0-1.7,0.4-3.1,1.1-4.3c0.7-1.1,1.7-1.7,2.7-1.7c1.1,0,2,0.7,2.7,2h0.1v-1.7
		h3.6v7.5h-3.6c0-1.7-0.1-2.8-0.3-3.4c-0.2-0.6-0.6-0.9-1.2-0.9c-0.8,0-1.3,0.6-1.3,1.9c0,0.9,0.2,1.7,0.6,2.3
		c0.4,0.6,1.1,1.3,2.1,2.1c1.5,1.2,2.6,2.3,3.2,3.4s0.9,2.5,0.9,4.2c0,1.7-0.4,3.2-1.2,4.3c-0.8,1.1-1.7,1.7-2.9,1.7
		c-1.1,0-2-0.7-2.8-2h-0.1v1.7H489.6z"/>
	<path class="st5" d="M502.7,249.1v-7.9h3.6c0.1,3,0.7,4.6,1.8,4.6c0.9,0,1.3-0.7,1.3-2c0-1.1-0.2-2-0.7-2.6
		c-0.4-0.6-1.2-1.3-2.4-2.3c-1.4-1.1-2.3-2.2-2.9-3.3c-0.6-1.1-0.9-2.3-0.9-3.7c0-1.7,0.4-3.1,1.1-4.3c0.7-1.1,1.7-1.7,2.7-1.7
		c1.1,0,2,0.7,2.7,2h0.1v-1.7h3.6v7.5h-3.6c0-1.7-0.1-2.8-0.4-3.4c-0.2-0.6-0.6-0.9-1.2-0.9c-0.8,0-1.3,0.6-1.3,1.9
		c0,0.9,0.2,1.7,0.6,2.3s1.1,1.3,2.1,2.1c1.5,1.2,2.6,2.3,3.2,3.4s0.9,2.5,0.9,4.2c0,1.7-0.4,3.2-1.2,4.3c-0.8,1.1-1.7,1.7-2.9,1.7
		c-1.1,0-2-0.7-2.8-2h-0.1v1.7H502.7z"/>
	<path class="st5" d="M527.9,226.2v19.1h1.7v3.8h-5.6v-1.8H524c-0.9,1.4-2,2.1-3.3,2.1c-2.4,0-3.6-1.9-3.6-5.7V230h-1.8v-3.8h5.6
		v16.9c0,0.9,0.1,1.6,0.3,1.9c0.2,0.4,0.5,0.6,1,0.6c0.5,0,1-0.2,1.3-0.7c0.4-0.5,0.6-0.8,0.6-0.9V230h-1.9v-3.8H527.9z"/>
	<path class="st5" d="M531.4,249.1v-3.8h1.9V230h-1.9v-3.8h5.8v4.5h0.1c0.7-1.9,1.4-3.2,2.1-3.8c0.7-0.6,1.7-0.9,2.9-0.9v4.3
		c-3.4,0-5.1,2-5.1,6.1v8.9h2.2v3.8H531.4z"/>
	<path class="st5" d="M551.8,242.2l3.4,1.3c-0.5,2-1.2,3.5-2.2,4.5c-1,1.1-2.1,1.6-3.4,1.6c-2,0-3.5-0.9-4.5-2.8
		c-1-1.9-1.4-4.9-1.4-9c0-4.1,0.5-7.2,1.4-9.2c1-2,2.4-3,4.5-3c1.7,0,3,0.8,4.1,2.5c1.1,1.6,1.6,4,1.6,7.2v3.5h-7.5v1
		c0,2.1,0.2,3.6,0.5,4.6c0.3,1,0.8,1.5,1.5,1.5C550.9,245.8,551.6,244.6,551.8,242.2z M547.8,235.5h3.7v-2c0-2.8-0.6-4.3-1.8-4.3
		c-0.7,0-1.2,0.4-1.4,1.3c-0.3,0.8-0.4,2.2-0.4,4V235.5z"/>
	<path class="st5" d="M573.5,249.3l-4.7-29.1H567v-4h7.9v4H573c1.2,6.5,2,13,2.5,19.7c0.6-6.7,1.5-13.3,2.5-19.7h-1.8v-4h7.3v4h-1.8
		c1.3,6.9,2.2,13.5,2.7,19.7c0.3-5.9,1.1-12.5,2.4-19.7h-1.8v-4h7.3v4h-1.7l-4.5,29.1h-3.5c-1.5-8.4-2.5-14.7-2.9-18.9
		c-0.2,3.1-1.1,9.4-2.5,18.9H573.5z"/>
	<path class="st5" d="M597.3,249.6c-2,0-3.4-1-4.4-2.9s-1.4-5-1.4-9.1c0-4.1,0.5-7.2,1.4-9.1c0.9-1.9,2.4-2.9,4.4-2.9
		c3.9,0,5.8,4,5.8,12C603.2,245.6,601.2,249.6,597.3,249.6z M597.3,229.4c-0.7,0-1.1,0.5-1.4,1.6c-0.2,1.1-0.3,3.2-0.3,6.5
		c0,2.4,0.1,4.2,0.2,5.3c0.1,1.2,0.3,1.9,0.5,2.3c0.2,0.4,0.6,0.6,1,0.6c0.8,0,1.3-0.6,1.5-1.9c0.2-1.2,0.3-3.4,0.3-6.3
		c0-3.3-0.1-5.4-0.4-6.5S598,229.4,597.3,229.4z"/>
	<path class="st5" d="M605.4,249.1v-3.8h1.9V230h-1.9v-3.8h5.8v4.5h0.1c0.7-1.9,1.4-3.2,2.1-3.8c0.7-0.6,1.7-0.9,2.9-0.9v4.3
		c-3.4,0-5.1,2-5.1,6.1v8.9h2.2v3.8H605.4z"/>
	<path class="st5" d="M617.2,249.1v-3.8h1.5l2.6-7.7l-2.6-7.6h-1.5v-3.8h4.2l1.8,6.3h0.1l1.8-6.3h3.8v3.8h-1.5l-2.4,7l2.8,8.3h1.7
		v3.8h-4.3l-2-7H623l-2.1,7H617.2z"/>
</g>
<g class="st4">
	<path class="st5" d="M357.9,302l-3.6-20.3h-1.5v-2.8h6v2.8h-1.5c1.2,6.1,1.8,10.8,1.9,14.1h0.1c0.1-3,0.7-7.7,1.8-14.1h-1.5v-2.8
		h5.7v2.8h-1.6l-3.5,20.3H357.9z"/>
	<path class="st5" d="M369.9,297l2.4,0.9c-0.3,1.4-0.8,2.4-1.5,3.2c-0.7,0.7-1.5,1.1-2.4,1.1c-1.4,0-2.5-0.7-3.1-2
		c-0.7-1.3-1-3.4-1-6.3c0-2.9,0.3-5,1-6.4c0.7-1.4,1.7-2.1,3.1-2.1c1.2,0,2.1,0.6,2.9,1.7c0.7,1.2,1.1,2.8,1.1,5v2.4H367v0.7
		c0,1.4,0.1,2.5,0.3,3.2c0.2,0.7,0.6,1,1.1,1C369.2,299.5,369.7,298.7,369.9,297z M367,292.3h2.6v-1.4c0-2-0.4-3-1.3-3
		c-0.5,0-0.8,0.3-1,0.9s-0.3,1.5-0.3,2.8V292.3z"/>
	<path class="st5" d="M377.8,288.5v9.4c0,1.1,0.4,1.6,1.2,1.6c0.3,0,0.7-0.1,1.1-0.3v2.5c-0.6,0.2-1.3,0.3-2.1,0.3
		c-1,0-1.7-0.3-2.2-1c-0.5-0.7-0.7-1.7-0.7-3.2v-9.4h-1.3v-2.6h1.3v-2.6c0.9-0.6,1.8-1.3,2.7-2.1v4.7h1.8v2.6H377.8z"/>
	<path class="st5" d="M387.2,297l2.4,0.9c-0.3,1.4-0.8,2.4-1.5,3.2c-0.7,0.7-1.5,1.1-2.4,1.1c-1.4,0-2.5-0.7-3.1-2
		c-0.7-1.3-1-3.4-1-6.3c0-2.9,0.3-5,1-6.4c0.7-1.4,1.7-2.1,3.1-2.1c1.2,0,2.1,0.6,2.9,1.7c0.7,1.2,1.1,2.8,1.1,5v2.4h-5.2v0.7
		c0,1.4,0.1,2.5,0.3,3.2c0.2,0.7,0.6,1,1.1,1C386.6,299.5,387.1,298.7,387.2,297z M384.4,292.3h2.6v-1.4c0-2-0.4-3-1.3-3
		c-0.5,0-0.8,0.3-1,0.9s-0.3,1.5-0.3,2.8V292.3z"/>
	<path class="st5" d="M391.3,301.8v-2.6h1.3v-10.7h-1.3v-2.6h4v3.1h0.1c0.5-1.3,1-2.2,1.4-2.6c0.5-0.4,1.2-0.7,2-0.7v3
		c-2.4,0-3.5,1.4-3.5,4.3v6.2h1.5v2.6H391.3z"/>
	<path class="st5" d="M409.4,299.1v2.6h-3.9v-1.4h-0.1c-0.6,1-1.4,1.6-2.4,1.6c-0.9,0-1.7-0.5-2.3-1.4c-0.6-0.9-0.9-2.1-0.9-3.6
		c0-1.6,0.3-2.9,1-3.7c0.7-0.9,1.5-1.3,2.6-1.3c0.8,0,1.6,0.4,2.1,1.1v-2.8c0-1.1-0.1-1.7-0.4-2c-0.2-0.3-0.6-0.4-1-0.4
		c-0.9,0-1.4,0.7-1.5,2.1l-2.5-0.7c0.2-1.2,0.6-2.1,1.4-2.8c0.7-0.7,1.6-1,2.7-1c1.1,0,2.1,0.4,2.8,1.2c0.8,0.8,1.1,1.9,1.1,3.2v9.3
		H409.4z M405.6,298.6v-3.5c-0.4-0.5-0.8-0.7-1.3-0.7c-1,0-1.5,0.9-1.5,2.6c0,1.7,0.5,2.5,1.5,2.5
		C404.7,299.5,405.2,299.2,405.6,298.6z"/>
	<path class="st5" d="M410.6,301.8v-2.6h1.1v-10.7h-1.2v-2.6h3.9v1.3h0.1c0.6-1,1.4-1.5,2.3-1.5c0.8,0,1.4,0.3,1.9,1
		c0.5,0.7,0.7,1.7,0.7,2.9v9.6h1.1v2.6h-3.8V290c0-0.6-0.1-1.1-0.2-1.4c-0.1-0.3-0.3-0.4-0.7-0.4c-0.4,0-0.7,0.2-1,0.5
		c-0.3,0.3-0.4,0.6-0.4,0.6v9.7h1.1v2.6H410.6z"/>
	<path class="st5" d="M442,290.5c0,7.8-1.7,11.7-5,11.7c-1.7,0-3-1-3.8-2.9s-1.2-4.9-1.2-8.8c0-2.6,0.2-4.8,0.6-6.6s1-3.1,1.7-4
		c0.8-0.9,1.7-1.3,2.7-1.3c1.6,0,2.8,1,3.7,3C441.5,283.5,442,286.5,442,290.5z M435.3,290.6c0,3.3,0.1,5.6,0.3,6.8
		c0.2,1.2,0.7,1.8,1.3,1.8c0.6,0,1.1-0.6,1.3-1.8c0.2-1.2,0.3-3.4,0.3-6.7c0-3.6-0.1-6-0.3-7.2c-0.2-1.2-0.7-1.8-1.3-1.8
		c-0.7,0-1.1,0.7-1.4,2C435.4,284.9,435.3,287.2,435.3,290.6z"/>
	<path class="st5" d="M447.2,302l-2.7-13.6h-1.1v-2.5h4.7v2.5h-1l1.4,8.6l1.7-11.2h2.5l2,11.2l1.2-8.6h-1.1v-2.5h4.7v2.5h-1.1
		l-2.6,13.6h-2.4l-2-11.2l-1.8,11.2H447.2z"/>
	<path class="st5" d="M460.6,301.8v-2.6h1.1v-10.7h-1.2v-2.6h3.9v1.3h0.1c0.6-1,1.4-1.5,2.3-1.5c0.8,0,1.4,0.3,1.9,1
		c0.5,0.7,0.7,1.7,0.7,2.9v9.6h1.1v2.6h-3.8V290c0-0.6-0.1-1.1-0.2-1.4c-0.1-0.3-0.3-0.4-0.7-0.4c-0.4,0-0.7,0.2-1,0.5
		c-0.3,0.3-0.4,0.6-0.4,0.6v9.7h1.1v2.6H460.6z"/>
	<path class="st5" d="M477.7,297l2.4,0.9c-0.3,1.4-0.8,2.4-1.5,3.2s-1.5,1.1-2.4,1.1c-1.4,0-2.5-0.7-3.1-2c-0.7-1.3-1-3.4-1-6.3
		c0-2.9,0.3-5,1-6.4c0.7-1.4,1.7-2.1,3.1-2.1c1.2,0,2.1,0.6,2.8,1.7c0.7,1.2,1.1,2.8,1.1,5v2.4h-5.2v0.7c0,1.4,0.1,2.5,0.3,3.2
		c0.2,0.7,0.6,1,1.1,1C477.1,299.5,477.6,298.7,477.7,297z M474.9,292.3h2.6v-1.4c0-2-0.4-3-1.3-3c-0.5,0-0.8,0.3-1,0.9
		c-0.2,0.6-0.3,1.5-0.3,2.8V292.3z"/>
	<path class="st5" d="M491.6,301.8h-4v-1.6h-0.1c-0.3,0.6-0.6,1-0.9,1.3c-0.3,0.3-0.8,0.5-1.3,0.5c-1.1,0-1.9-0.7-2.5-2.1
		c-0.6-1.4-0.9-3.3-0.9-5.9c0-3.1,0.3-5.3,0.8-6.6c0.5-1.3,1.4-2,2.6-2c0.9,0,1.7,0.5,2.3,1.4h0.1v-5.4h-1.7v-2.6h4.4v20.3h1.3
		V301.8z M487.6,294.2v-2.5c0-1.3-0.1-2.2-0.3-2.8c-0.2-0.6-0.6-0.9-1.1-0.9c-0.6,0-0.9,0.3-1.1,1c-0.2,0.7-0.3,1.9-0.3,3.7v3.6
		c0,2,0.5,3,1.4,3c0.6,0,1-0.3,1.2-1S487.6,296.3,487.6,294.2z"/>
	<path class="st5" d="M512.4,299.1v2.6h-3.9v-1.4h-0.1c-0.6,1-1.4,1.6-2.4,1.6c-0.9,0-1.7-0.5-2.3-1.4c-0.6-0.9-0.9-2.1-0.9-3.6
		c0-1.6,0.3-2.9,1-3.7c0.7-0.9,1.5-1.3,2.6-1.3c0.8,0,1.6,0.4,2.1,1.1v-2.8c0-1.1-0.1-1.7-0.4-2s-0.6-0.4-1-0.4
		c-0.9,0-1.4,0.7-1.5,2.1l-2.5-0.7c0.2-1.2,0.6-2.1,1.4-2.8c0.7-0.7,1.6-1,2.7-1c1.1,0,2.1,0.4,2.8,1.2c0.8,0.8,1.1,1.9,1.1,3.2v9.3
		H512.4z M508.6,298.6v-3.5c-0.4-0.5-0.8-0.7-1.3-0.7c-1,0-1.5,0.9-1.5,2.6c0,1.7,0.5,2.5,1.5,2.5
		C507.7,299.5,508.2,299.2,508.6,298.6z"/>
	<path class="st5" d="M513.6,301.8v-2.6h1.1v-10.7h-1.2v-2.6h3.9v1.3h0.1c0.6-1,1.4-1.5,2.3-1.5c0.8,0,1.4,0.3,1.9,1
		c0.5,0.7,0.7,1.7,0.7,2.9v9.6h1.1v2.6h-3.8V290c0-0.6-0.1-1.1-0.2-1.4c-0.1-0.3-0.3-0.4-0.7-0.4c-0.4,0-0.7,0.2-1,0.5
		c-0.3,0.3-0.4,0.6-0.4,0.6v9.7h1.1v2.6H513.6z"/>
	<path class="st5" d="M534.5,301.8h-4v-1.6h-0.1c-0.3,0.6-0.6,1-0.9,1.3c-0.3,0.3-0.8,0.5-1.3,0.5c-1.1,0-1.9-0.7-2.5-2.1
		c-0.6-1.4-0.9-3.3-0.9-5.9c0-3.1,0.3-5.3,0.8-6.6c0.5-1.3,1.4-2,2.6-2c0.9,0,1.7,0.5,2.3,1.4h0.1v-5.4h-1.7v-2.6h4.4v20.3h1.3
		V301.8z M530.5,294.2v-2.5c0-1.3-0.1-2.2-0.3-2.8c-0.2-0.6-0.6-0.9-1.1-0.9c-0.6,0-0.9,0.3-1.1,1c-0.2,0.7-0.3,1.9-0.3,3.7v3.6
		c0,2,0.5,3,1.4,3c0.6,0,1-0.3,1.2-1S530.5,296.3,530.5,294.2z"/>
	<path class="st5" d="M555.9,290.5c0,7.8-1.7,11.7-5,11.7c-1.7,0-3-1-3.8-2.9s-1.2-4.9-1.2-8.8c0-2.6,0.2-4.8,0.6-6.6s1-3.1,1.7-4
		c0.8-0.9,1.7-1.3,2.7-1.3c1.6,0,2.8,1,3.7,3C555.5,283.5,555.9,286.5,555.9,290.5z M549.3,290.6c0,3.3,0.1,5.6,0.3,6.8
		c0.2,1.2,0.7,1.8,1.3,1.8c0.6,0,1.1-0.6,1.3-1.8c0.2-1.2,0.3-3.4,0.3-6.7c0-3.6-0.1-6-0.3-7.2c-0.2-1.2-0.7-1.8-1.3-1.8
		c-0.7,0-1.1,0.7-1.4,2C549.4,284.9,549.3,287.2,549.3,290.6z"/>
	<path class="st5" d="M557.5,285.8h4v1.6h0.1c0.6-1.2,1.3-1.8,2.2-1.8c1.2,0,2,0.7,2.6,2.1c0.6,1.4,0.8,3.6,0.8,6.5
		c0,2.6-0.2,4.5-0.7,5.9c-0.5,1.4-1.4,2-2.6,2c-0.9,0-1.7-0.5-2.3-1.4h-0.1v3.8h1.5v2.6h-5.4v-2.6h1.3v-16.1h-1.3V285.8z
		 M561.4,293.4v2.5c0,1.3,0.1,2.3,0.3,2.9c0.2,0.6,0.6,0.9,1.1,0.9c0.6,0,1-0.3,1.1-1c0.2-0.7,0.3-1.7,0.3-3.1v-2.2
		c0-1.9-0.1-3.2-0.3-3.9c-0.2-0.8-0.6-1.1-1.1-1.1c-0.6,0-1,0.4-1.2,1.3C561.5,290.4,561.4,291.7,561.4,293.4z"/>
	<path class="st5" d="M574.6,297l2.4,0.9c-0.3,1.4-0.8,2.4-1.5,3.2c-0.7,0.7-1.5,1.1-2.4,1.1c-1.4,0-2.5-0.7-3.1-2s-1-3.4-1-6.3
		c0-2.9,0.3-5,1-6.4c0.7-1.4,1.7-2.1,3.1-2.1c1.2,0,2.1,0.6,2.9,1.7c0.7,1.2,1.1,2.8,1.1,5v2.4h-5.2v0.7c0,1.4,0.1,2.5,0.3,3.2
		c0.2,0.7,0.6,1,1.1,1C574,299.5,574.5,298.7,574.6,297z M571.8,292.3h2.6v-1.4c0-2-0.4-3-1.3-3c-0.5,0-0.8,0.3-1,0.9
		c-0.2,0.6-0.3,1.5-0.3,2.8V292.3z"/>
	<path class="st5" d="M578.7,301.8v-2.6h1.3v-10.7h-1.3v-2.6h4v3.1h0.1c0.5-1.3,1-2.2,1.4-2.6c0.5-0.4,1.2-0.7,2-0.7v3
		c-2.4,0-3.5,1.4-3.5,4.3v6.2h1.5v2.6H578.7z"/>
	<path class="st5" d="M596.8,299.1v2.6H593v-1.4h-0.1c-0.6,1-1.4,1.6-2.4,1.6c-0.9,0-1.7-0.5-2.3-1.4c-0.6-0.9-0.9-2.1-0.9-3.6
		c0-1.6,0.3-2.9,1-3.7c0.7-0.9,1.5-1.3,2.6-1.3c0.8,0,1.6,0.4,2.1,1.1v-2.8c0-1.1-0.1-1.7-0.4-2s-0.6-0.4-1-0.4
		c-0.9,0-1.4,0.7-1.5,2.1l-2.5-0.7c0.2-1.2,0.6-2.1,1.4-2.8c0.7-0.7,1.6-1,2.7-1c1.1,0,2.1,0.4,2.8,1.2c0.8,0.8,1.1,1.9,1.1,3.2v9.3
		H596.8z M593,298.6v-3.5c-0.4-0.5-0.8-0.7-1.3-0.7c-1,0-1.5,0.9-1.5,2.6c0,1.7,0.5,2.5,1.5,2.5C592.1,299.5,592.6,299.2,593,298.6z
		"/>
	<path class="st5" d="M601.7,288.5v9.4c0,1.1,0.4,1.6,1.2,1.6c0.3,0,0.7-0.1,1.1-0.3v2.5c-0.6,0.2-1.3,0.3-2.1,0.3
		c-1,0-1.7-0.3-2.2-1s-0.7-1.7-0.7-3.2v-9.4h-1.3v-2.6h1.3v-2.6c0.9-0.6,1.8-1.3,2.7-2.1v4.7h1.8v2.6H601.7z"/>
	<path class="st5" d="M611.2,297l2.4,0.9c-0.3,1.4-0.8,2.4-1.5,3.2s-1.5,1.1-2.4,1.1c-1.4,0-2.5-0.7-3.1-2c-0.7-1.3-1-3.4-1-6.3
		c0-2.9,0.3-5,1-6.4c0.7-1.4,1.7-2.1,3.1-2.1c1.2,0,2.1,0.6,2.9,1.7c0.7,1.2,1.1,2.8,1.1,5v2.4h-5.2v0.7c0,1.4,0.1,2.5,0.3,3.2
		c0.2,0.7,0.6,1,1.1,1C610.6,299.5,611.1,298.7,611.2,297z M608.4,292.3h2.6v-1.4c0-2-0.4-3-1.3-3c-0.5,0-0.8,0.3-1,0.9
		c-0.2,0.6-0.3,1.5-0.3,2.8V292.3z"/>
	<path class="st5" d="M625.1,301.8h-4v-1.6H621c-0.3,0.6-0.6,1-0.9,1.3c-0.3,0.3-0.8,0.5-1.3,0.5c-1.1,0-1.9-0.7-2.5-2.1
		c-0.6-1.4-0.9-3.3-0.9-5.9c0-3.1,0.3-5.3,0.8-6.6c0.5-1.3,1.4-2,2.6-2c0.9,0,1.7,0.5,2.3,1.4h0.1v-5.4h-1.7v-2.6h4.4v20.3h1.3
		V301.8z M621.1,294.2v-2.5c0-1.3-0.1-2.2-0.3-2.8c-0.2-0.6-0.6-0.9-1.1-0.9c-0.6,0-0.9,0.3-1.1,1c-0.2,0.7-0.3,1.9-0.3,3.7v3.6
		c0,2,0.5,3,1.4,3c0.6,0,1-0.3,1.2-1C621,297.7,621.1,296.3,621.1,294.2z"/>
</g>
<g>
	<polyline class="st5" points="577.6,435 448.7,382.4 447.8,385 412.5,370.3 413.5,368 374,352 377.6,345.4 415.8,362 416.8,359.5 
		452.1,374.5 451.4,376.6 579.7,429.6 	"/>
	<polyline class="st5" points="579.7,429.7 581,430.2 581.4,429.5 587.1,431.5 586.6,432.9 586.6,432.9 587.5,429.8 592.7,431.9 
		588.7,442.4 583.8,440.3 584.9,437 584.9,437 584.2,439.1 578.2,436.5 578.5,435.5 577.6,435.1 	"/>
	<g>
		<path class="st6" d="M285,357.5l-19.7,32.4c0,0-4.1,0.2-10,1.2c-6.7,1.2-2.9,5.7-2.9,5.7s6,3.4,15.1,7l23.1-36.6
			c0,0,5.2-9.2,13.9-13.4l-17.1,30.9l3.8,1.8c2.3,1.1,5.1,0.2,6.3-2.3l6.4-11.1c0,0,6.4-14.4,17.3-10.9s10.9,3.5,10.9,3.5
			s7.1-0.1,8.2-3.8s1.7-11.5,1.7-11.5l28.3,11.3l8.1-17.3c0,0,3.2-5.5-3.5-9.6c-1.6-1.1-21.4-10.6-41.9-17.7l-27.2-10.5
			c0,0-20,3.5-9.3,22L285,357.5z"/>
		<polyline class="st7" points="370.7,359.2 363.7,374.2 302.6,397.8 277.6,385.9 268.1,401 		"/>
	</g>
	<polygon class="st8" points="328,337.5 324.5,333.4 319.1,334.2 321.9,329.6 319.8,324.6 324.7,325.7 328.7,321.7 329.2,327.2 
		333.9,329.5 329,332 	"/>
	<polygon class="st8" points="346.6,343.9 343.1,340.1 337.7,340.9 340.5,336.1 338.3,331.3 343.3,332.1 347.3,328.3 347.8,333.6 
		352.5,336.2 347.6,338.6 	"/>
	<polygon class="st8" points="364.3,350.3 360.9,346.2 355.8,347.1 358.5,342.5 356.4,337.5 361.3,338.6 365.4,334.6 365.8,340.1 
		370.3,342.3 365.4,344.7 	"/>
	<polygon class="st8" points="310,330.8 306.5,327 301.4,327.8 304,322.9 302,318.2 307,319.1 311,315.3 311.4,320.9 315.9,323 
		311,325.5 	"/>
</g>
<path class="st9" d="M242.4,211c0,0,2.1-18.1,2.1-24.1s5.8-13.5,5.8-13.5s12.4-16.6,41.9-11.1c22,4.1,25.9,27.6,25.9,27.6l0.3,2.1
	c0,0,5.2,3,5.4,4c0.2,1.1-0.3,2.1-0.3,2.1s-4.2,3.6-9.9,3.2s-3.6,0.2-3.6,0.2l-1.4,3.5l0,2.6c0,0,3,6.5,4.8,8.4
	c1.8,1.9,0.4,4.5,0.4,4.5s-2.7,1-4.4,0.2c0,0-0.8,3.3-0.6,4.3c0.2,1,0.5,1.5,0.3,2c-0.3,0.6-0.8,1-0.8,1l0,0c0,0,0.9,0.5,0.3,1.5
	c-0.6,1-2,1.1-2,1.1s-1.5,1.1-1,3c0.5,1.9,0.9,4.3-0.1,5.7c-1,1.4-6.1,3.1-10.5,2.7c-4.4-0.4-4.4-0.4-4.4-0.4s0.1,4.1-2.2,5.8
	s-1.5,6.4-1.5,6.4l6,17.5l-30.5-14.8l-11.8-18.7c0,0,2.4-4.2,4.4-11c2-6.8-1.1-11.1-1.1-11.1L242.4,211z"/>
<path class="st10" d="M239.2,233.9c0,0-21.2-3.4-33.1,18.4c-11.9,21.8-18.4,54.2-18.4,54.2l-1.5,10.7c0,0-3.3,8.4-2.5,13.5
	c0.8,5.1,4.9,15.1,10.3,20.6c5.4,5.5,9.2,6.1,9.2,6.1s3.5,13.8,11.4,15.3c7.9,1.5,21.1-1,29.4-4.4c8.3-3.4,44.2-7,44.2-7l7-1.9
	c0,0,3.5,1.1,5.1,2.9c1.6,1.8,8.5,4.6,8.5,4.6l7.6,0.7c0,0,4.2-0.6,5.2-1.4s2.7-2.9,2.7-2.9l0.5-2.6c0,0,1.5-0.7,2-1.9
	c0.5-1.2,0-2.9,0-2.9l1.3-3l1.8-1.3l14.5,7l2.5-2.5c0,0-0.2-3.2-0.9-3.4c-0.8-0.2-20.2-12.5-20.7-12.9c-0.5-0.4-4.8-6.8-10-6.7
	c-5.3,0-22.8,3.7-22.8,3.7s-22.3-2-28.5-2.6c-6.7-0.6-21.2-1.9-21.2-1.9c-0.2-1.7-2.6-6.9-2.6-6.9c1.9-4.9,5.9-11.1,5.1-19.2
	c-1-9.6-0.2-18.7-0.2-18.7s-0.8,8.1,0.2,18.7c0.4,4.4,0.2,7.4-5.1,19.2c0,0,2.4,5.5,2.6,6.9l49.7,4.5l2.7-8l-2.1-5.8
	c0,0-5.8-12.4,12-17.4c1.2-0.3,0.1-8.2,0.1-8.2s2.5-4.7,1.5-8.2c-0.9-3.5-7.7-19.9-7.7-19.9l-9.2-8.2l-3-1.3c0,0-15.3,0.2-17.5-1.3
	s-18.6-21.7-19.1-22C249.8,236.1,239.2,233.9,239.2,233.9z"/>
<path class="st11" d="M421.4,361.8c0,0,6-4.3,8.2-1.8c2.3,2.6,6.8,4.5,6.7,4.4c0,0-0.7,2.3-5.1,2.2l-4.8-2.1L421.4,361.8z"/>
<path class="st10" d="M415.2,371.6c0,0,2.6,1.1,6.3,1.6c0.5,0.1,3.6-0.7,3.1-2.9c-0.2-1-0.4-4.1-0.5-4.3c-1.5-1.6-1.4-3.1-1.2-3.4
	c1.8-2,3.8,1.9,4.5,4c0.5,1.3,1.1,6.2,1.1,6.2s0.5-0.2,0-3.8c-0.2-1.3-1-4.5-0.7-5.4c0.2-0.8,1.3-0.7,1.6-0.6
	c0.8,0.2,1.8,0.3,2.4,2.8c0.2,0.9,1,3.7,1,3.7s0.3,3.5,0.5,4.5c0.1,0.5,0.3-3.5-0.2-6.5c-0.1-0.8-1-2.8-0.4-2.9c0,0,0.6-0.4,1-0.3
	c0.8,0.1,1.1-0.2,1.8,1.4c1.2,3.1,2,5.5,1.8,8.1c-0.3,4.4,0.5-3.7,0.5-3.7s-1.1-2.7,0-2.9c0.8-0.2,3.1,3.2,3.1,3.2s0.6,1.8,0.7,4.3
	c0,0.3,0.3,3.1,0.2,3.4c-0.5,2.6-0.6,2.9-0.8,3.4c-0.6,1.5-1.8,1.5-2.4,1.1c-0.5-0.3-1.4-0.9-1.6-0.9c-0.9,0.2-1.3,0.6-2.2,0.6
	c-1.4-0.1-2.2-0.8-2.2-0.8s-2.7,1-4.7-1.2c0,0-3,0.9-5.8-1.4c-4.2-3.6-11.5-5.9-11.2-6.3c0.5-0.7,1.7-2.7,1.7-2.7L415.2,371.6z"/>
<path class="st10" d="M323.4,195.6c0,0,0.7,1.1,0.3,2c-0.5,1.1-2.3,2-3.1,1.9c-7.6-1-27.2-4.5-35.8,1.5c0,0-1,6.5-4.9,8.8
	c-3.9,2.3-10.5,5.7-10.5,5.7l-17.3-2.3l-9.6-2.1c0,0,1.9-15.9,2.7-28.4c0.7-10.5,21.1-21.6,31.8-21.4
	C322.5,161.9,312.6,186.6,323.4,195.6z"/>
</svg>
