<?xml version="1.0" encoding="utf-8"?>
<!-- Generator: Adobe Illustrator 26.0.3, SVG Export Plug-In . SVG Version: 6.00 Build 0)  -->
<svg version="1.1" id="Layer_1" xmlns="http://www.w3.org/2000/svg" xmlns:xlink="http://www.w3.org/1999/xlink" x="0px" y="0px"
	 viewBox="0 0 494 339" style="enable-background:new 0 0 494 339;" xml:space="preserve">
<style type="text/css">
	.st0{fill:#49522B;stroke:#282C20;stroke-width:0.5;stroke-miterlimit:10;}
	.st1{fill:#343D21;stroke:#282C20;stroke-width:0.5;stroke-miterlimit:10;}
	.st2{fill:none;}
	.st3{enable-background:new    ;}
	.st4{fill:#010101;}
	.st5{fill:#010101;stroke:#010101;stroke-miterlimit:10;}
	.st6{fill:none;stroke:#010101;stroke-miterlimit:10;}
	.st7{opacity:0.46;fill:#26AC4A;enable-background:new    ;}
	.st8{fill:#444E28;stroke:#282C20;stroke-width:0.5;stroke-miterlimit:10;}
	.st9{fill:#5A6336;stroke:#282C20;stroke-width:0.5;stroke-miterlimit:10;}
	.st10{fill:#5A6336;stroke:#282C20;stroke-width:0.25;stroke-miterlimit:10;}
</style>
<path class="st0" d="M23.4,144.9c0,0-6.8,77.4,3.8,112.4c5,16.9,78.4,10.6,78.4,10.6s40.6-62.3,37-98.7
	c-3.6-36.4-92.7-52.1-92.7-52.1S31.3,123.5,23.4,144.9z"/>
<path class="st1" d="M158.5,167.8c0,0,36.1,5.5,76.1,44.9c11.3,11.1,42.8,24.7,42.8,24.7l-9.3,14.7c0,0-119.3-27.4-151-71.6
	s-23.7-48.8-23.7-48.8s18.4-22.6,44.1-10C151.1,128.5,158.5,167.8,158.5,167.8z"/>
<polygon class="st2" points="115.8,104.1 594.5,104.1 595.1,158.7 116.4,158.7 "/>
<g class="st3">
	<path class="st4" d="M204.8,114.3l3.8,1.1c0,3.4-0.6,6.1-1.8,8c-1.1,2-2.7,2.9-4.6,2.9c-2.4,0-4.2-1.3-5.4-4
		c-1.1-2.7-1.8-6.8-1.8-12.3c0-11.3,2.1-17,6.2-17c1.4,0,2.6,0.7,3.3,2.1h0.1v-1.5h3.7v10.5h-3.7c0-2.2-0.2-3.8-0.7-5
		c-0.5-1.1-1.1-1.8-2.1-1.8c-0.6,0-1.1,0.3-1.4,0.8c-0.3,0.5-0.5,1.6-0.6,3.3c-0.1,1.6-0.2,4.3-0.2,8c0,5.2,0.2,8.6,0.5,10.2
		c0.3,1.6,1,2.5,2.1,2.5c0.8,0,1.5-0.6,2-1.8C204.6,119.2,204.8,117.1,204.8,114.3z"/>
	<path class="st4" d="M217.3,126.3c-2,0-3.4-0.9-4.3-2.9s-1.3-4.9-1.3-9c0-4.1,0.4-7,1.3-9c0.9-1.9,2.4-2.8,4.3-2.8
		c3.8,0,5.8,3.9,5.8,11.9C223.1,122.3,221.1,126.3,217.3,126.3z M217.3,106.5c-0.7,0-1.1,0.5-1.3,1.5c-0.2,1-0.3,3.2-0.3,6.4
		c0,2.4,0.1,4.1,0.2,5.3c0.1,1.1,0.3,2,0.5,2.3c0.2,0.4,0.6,0.6,1,0.6c0.7,0,1.2-0.6,1.4-1.9c0.2-1.2,0.3-3.3,0.3-6.2
		c0-3.2-0.1-5.4-0.3-6.4C218.5,107,218,106.5,217.3,106.5z"/>
	<path class="st4" d="M225.3,125.7V122h1.5v-15h-1.6v-3.7h5.5v2h0.1c0.8-1.5,2-2.3,3.3-2.3c1.3,0,2.3,0.7,3.1,2.3
		c0.9-1.5,2.2-2.3,3.5-2.3c2.7,0,4,2.1,4,6.1v13h1.5v3.7h-5.4v-16.5c0-0.9-0.1-1.6-0.2-2c-0.2-0.4-0.5-0.5-0.9-0.5
		c-0.5,0-1,0.2-1.3,0.7c-0.4,0.4-0.6,0.7-0.6,0.8v13.8h1.5v3.7H234v-16.5c0-0.9-0.1-1.5-0.3-2s-0.5-0.6-1-0.6c-0.7,0-1.3,0.5-2,1.5
		v13.8h1.5v3.7h-6.9V125.7z"/>
	<path class="st4" d="M248,125.7V122h1.9V97.2H248v-3.7h5.6v11.2h0.1c0.9-1.3,2-2.1,3.3-2.1c1.8,0,2.9,0.9,3.6,2.8
		c0.7,1.9,1,4.9,1,9.4c0,3.6-0.4,6.4-1.2,8.3s-2,2.9-3.6,2.9c-1.3,0-2.4-0.8-3.2-2.6h-0.1v2.3H248z M253.6,110.9v5.9
		c0,1.9,0.1,3.2,0.4,4.1c0.3,0.9,0.8,1.3,1.6,1.3c0.7,0,1.2-0.4,1.5-1.3c0.3-0.9,0.4-2.3,0.4-4.1v-3.8c0-2.5-0.1-4.2-0.4-5.3
		c-0.3-1-0.8-1.5-1.5-1.5C254.3,106.2,253.6,107.8,253.6,110.9z"/>
	<path class="st4" d="M277.9,122v3.7h-5.5v-2h-0.1c-0.8,1.4-2,2.2-3.4,2.2c-1.3,0-2.4-0.6-3.3-2c-0.8-1.2-1.2-3-1.2-5
		c0-2.3,0.5-4,1.4-5.3s2.2-1.9,3.6-1.9c1.2,0,2.2,0.5,3,1.5v-3.9c0-1.4-0.2-2.5-0.5-2.9c-0.3-0.4-0.8-0.6-1.4-0.6
		c-1.2,0-2,0.9-2.1,2.9l-3.5-1c0.3-1.8,0.9-3,2-3.9c1-0.9,2.3-1.4,3.8-1.4c1.6,0,3,0.5,4,1.6c1,1.1,1.5,2.7,1.5,4.5v13.1h1.6V122z
		 M272.4,121.3v-4.9c-0.5-0.7-1.2-1-1.9-1c-1.4,0-2.2,1.2-2.2,3.6c0,2.4,0.7,3.5,2.2,3.5C271.2,122.5,271.9,122.1,272.4,121.3z"/>
	<path class="st4" d="M284.8,107v13.2c0,1.4,0.5,2.3,1.6,2.3c0.4,0,0.9-0.1,1.5-0.4v3.5c-0.8,0.3-1.9,0.5-3,0.5
		c-1.4,0-2.4-0.4-3.1-1.3c-0.6-0.9-0.9-2.4-0.9-4.4v-13.2h-1.9v-3.7h1.9v-3.7c1.2-0.8,2.6-1.9,3.8-3v6.6h2.5v3.7L284.8,107
		L284.8,107z"/>
	<path class="st4" d="M306,121.8V97.4h-2.5v-3.9h7.5c2.6,0,4.6,0.9,6.2,2.7c1.4,1.8,2.3,4.2,2.3,7.3c0,3.1-0.7,5.5-2.1,7.2
		c-1.3,1.8-3.7,2.6-7,2.6v8.6h2.5v3.9h-9.3v-3.9H306z M310.4,97.4v12.1c0.9,0,1.8-0.1,2.4-0.3c0.6-0.2,1.1-0.7,1.5-1.6
		c0.4-0.9,0.6-2.2,0.6-4c0-2.4-0.4-3.9-1.1-4.7C313,97.9,311.8,97.4,310.4,97.4z"/>
	<path class="st4" d="M320.7,125.7V122h1.9v-15h-1.9v-3.7h5.7v4.4h0.1c0.7-1.9,1.3-3.1,2.1-3.7c0.6-0.6,1.6-0.9,2.9-0.9v4.2
		c-3.3,0-4.9,2.1-4.9,6.1v8.8h2.2v3.7h-7.9V125.7z"/>
	<path class="st4" d="M340.7,118.9l3.3,1.3c-0.4,2-1.1,3.4-2.2,4.4c-0.9,1-2.1,1.5-3.3,1.5c-2.1,0-3.5-0.9-4.4-2.8
		c-0.9-1.9-1.4-4.8-1.4-8.9s0.5-7,1.4-9.1c0.9-2,2.4-3,4.4-3c1.6,0,3,0.8,4,2.5c1,1.6,1.5,4,1.5,7v3.4h-7.4v0.9
		c0,2.1,0.1,3.5,0.4,4.5s0.8,1.4,1.4,1.4C339.8,122.5,340.5,121.4,340.7,118.9z M336.6,112.4h3.6v-2c0-2.8-0.6-4.2-1.9-4.2
		c-0.7,0-1.1,0.4-1.4,1.2c-0.2,0.8-0.4,2.2-0.4,3.9v1H336.6z"/>
	<path class="st4" d="M346.8,125.7V118h3.5c0.1,3,0.6,4.5,1.8,4.5c0.8,0,1.2-0.6,1.2-2c0-1.1-0.2-2-0.6-2.6
		c-0.4-0.5-1.2-1.3-2.4-2.3c-1.3-1.1-2.3-2.2-2.9-3.3c-0.6-1-0.8-2.3-0.8-3.6c0-1.6,0.4-3.1,1.1-4.2c0.7-1.1,1.6-1.6,2.7-1.6
		c1.1,0,2,0.6,2.7,2h0.1v-1.6h3.5v7.4h-3.5c0-1.6-0.1-2.8-0.3-3.3c-0.2-0.5-0.6-0.8-1.2-0.8c-0.8,0-1.2,0.6-1.2,1.9
		c0,0.9,0.2,1.6,0.5,2.3c0.4,0.6,1,1.2,2.2,2.1c1.5,1.1,2.6,2.3,3.2,3.4c0.6,1.1,0.9,2.5,0.9,4.1c0,1.8-0.4,3.1-1.1,4.2
		c-0.7,1.1-1.8,1.6-2.9,1.6c-1,0-2-0.6-2.8-2h-0.1v1.6h-3.5V125.7z"/>
	<path class="st4" d="M359.7,125.7V118h3.5c0.1,3,0.6,4.5,1.8,4.5c0.8,0,1.2-0.6,1.2-2c0-1.1-0.2-2-0.6-2.6
		c-0.4-0.5-1.2-1.3-2.4-2.3c-1.3-1.1-2.3-2.2-2.9-3.3c-0.6-1-0.8-2.3-0.8-3.6c0-1.6,0.4-3.1,1.1-4.2c0.7-1.1,1.6-1.6,2.7-1.6
		c1.1,0,2,0.6,2.7,2h0.1v-1.6h3.5v7.4h-3.5c0-1.6-0.1-2.8-0.3-3.3c-0.2-0.5-0.6-0.8-1.2-0.8c-0.8,0-1.2,0.6-1.2,1.9
		c0,0.9,0.2,1.6,0.5,2.3c0.4,0.6,1,1.2,2.2,2.1c1.5,1.1,2.6,2.3,3.2,3.4c0.6,1.1,0.9,2.5,0.9,4.1c0,1.8-0.4,3.1-1.1,4.2
		c-0.7,1.1-1.8,1.6-2.9,1.6c-1,0-2-0.6-2.8-2h-0.1v1.6h-3.5V125.7z"/>
	<path class="st4" d="M384.6,103.3V122h1.6v3.7h-5.5V124h-0.1c-0.9,1.3-2,2.1-3.2,2.1c-2.4,0-3.6-1.9-3.6-5.6V107h-1.8v-3.7h5.6
		v16.6c0,0.9,0.1,1.5,0.2,1.9c0.2,0.4,0.5,0.5,0.9,0.5c0.5,0,0.9-0.2,1.3-0.7c0.4-0.5,0.6-0.8,0.6-0.9v-13.7h-1.9v-3.7h5.7V103.3z"
		/>
	<path class="st4" d="M388.1,125.7V122h1.9v-15h-1.9v-3.7h5.7v4.4h0.1c0.7-1.9,1.3-3.1,2.1-3.7c0.6-0.6,1.6-0.9,2.9-0.9v4.2
		c-3.3,0-4.9,2.1-4.9,6.1v8.8h2.2v3.7h-7.9V125.7z"/>
	<path class="st4" d="M408.1,118.9l3.3,1.3c-0.4,2-1.1,3.4-2.2,4.4c-0.9,1-2.1,1.5-3.3,1.5c-2.1,0-3.5-0.9-4.4-2.8
		c-0.9-1.9-1.4-4.8-1.4-8.9s0.5-7,1.4-9.1c0.9-2,2.4-3,4.4-3c1.6,0,3,0.8,4,2.5c1,1.6,1.5,4,1.5,7v3.4H404v0.9
		c0,2.1,0.1,3.5,0.4,4.5c0.3,1,0.8,1.4,1.4,1.4C407.2,122.5,408,121.4,408.1,118.9z M404.1,112.4h3.6v-2c0-2.8-0.6-4.2-1.9-4.2
		c-0.7,0-1.1,0.4-1.4,1.2c-0.2,0.8-0.4,2.2-0.4,3.9v1H404.1z"/>
	<path class="st4" d="M429.5,126l-4.6-28.6h-1.8v-3.9h7.7v3.9h-1.8c1.1,6.4,2,12.9,2.5,19.4c0.6-6.6,1.4-13.1,2.5-19.4h-1.9v-3.9
		h7.2v3.9h-1.8c1.2,6.8,2.2,13.3,2.6,19.4c0.3-5.9,1.1-12.3,2.3-19.4h-1.8v-3.9h7.2v3.9h-1.6l-4.4,28.6h-3.5
		c-1.5-8.2-2.5-14.5-2.9-18.7c-0.2,3.1-1,9.3-2.5,18.7H429.5z"/>
	<path class="st4" d="M453,126.3c-2,0-3.4-0.9-4.3-2.9s-1.3-4.9-1.3-9c0-4.1,0.5-7,1.3-9c0.8-2,2.4-2.8,4.3-2.8
		c3.8,0,5.8,3.9,5.8,11.9C458.7,122.3,456.8,126.3,453,126.3z M453,106.5c-0.7,0-1.1,0.5-1.3,1.5c-0.2,1-0.3,3.2-0.3,6.4
		c0,2.4,0.1,4.1,0.2,5.3c0.1,1.1,0.3,2,0.5,2.3s0.6,0.6,1,0.6c0.7,0,1.2-0.6,1.4-1.9c0.2-1.2,0.3-3.3,0.3-6.2c0-3.2-0.1-5.4-0.3-6.4
		C454.1,107,453.7,106.5,453,106.5z"/>
	<path class="st4" d="M460.9,125.7V122h1.9v-15h-1.9v-3.7h5.7v4.4h0.1c0.7-1.9,1.3-3.1,2.1-3.7c0.6-0.6,1.6-0.9,2.9-0.9v4.2
		c-3.3,0-4.9,2.1-4.9,6.1v8.8h2.2v3.7h-7.9V125.7z"/>
	<path class="st4" d="M472.5,125.7V122h1.4l2.5-7.6l-2.5-7.4h-1.4v-3.7h4.1l1.9,6.2h0.1l1.8-6.2h3.7v3.7h-1.5l-2.4,6.9l2.8,8.1h1.6
		v3.7h-4.2l-2-6.9h-0.1l-2.2,6.9H472.5z"/>
</g>
<g class="st3">
	<path class="st4" d="M210.2,169.7l-3.5-19.7h-1.4v-2.7h5.8v2.7h-1.4c1.1,5.9,1.8,10.4,1.9,13.6h0.1c0.1-2.9,0.6-7.4,1.8-13.6h-1.4
		v-2.7h5.5v2.7h-1.5l-3.4,19.7H210.2z"/>
	<path class="st4" d="M221.7,164.9l2.3,0.9c-0.3,1.3-0.8,2.4-1.4,3.1c-0.6,0.7-1.4,1-2.3,1c-1.3,0-2.4-0.6-3.1-2
		c-0.6-1.2-0.9-3.3-0.9-6.1c0-2.8,0.3-4.8,0.9-6.2c0.6-1.3,1.6-2.1,3-2.1c1.1,0,2.1,0.5,2.8,1.6c0.7,1.1,1,2.7,1,4.8v2.4h-5v0.6
		c0,1.3,0.1,2.5,0.3,3.1c0.2,0.7,0.5,1,1,1C221.2,167.4,221.6,166.5,221.7,164.9z M219.1,160.4h2.5V159c0-2-0.4-2.9-1.2-2.9
		c-0.5,0-0.8,0.3-0.9,0.8c-0.2,0.6-0.2,1.4-0.2,2.7v0.7H219.1z"/>
	<path class="st4" d="M229.5,156.5v9.1c0,1,0.4,1.5,1.1,1.5c0.3,0,0.6-0.1,1-0.3v2.4c-0.6,0.2-1.2,0.3-2.1,0.3
		c-0.9,0-1.6-0.3-2.1-0.9c-0.4-0.6-0.6-1.6-0.6-3.1v-9.1h-1.2v-2.4h1.2v-2.6c0.9-0.6,1.8-1.2,2.6-2.1v4.5h1.8v2.6H229.5z"/>
	<path class="st4" d="M238.6,164.9l2.3,0.9c-0.3,1.3-0.8,2.4-1.4,3.1c-0.6,0.7-1.4,1-2.3,1c-1.3,0-2.4-0.6-3.1-2
		c-0.6-1.2-0.9-3.3-0.9-6.1c0-2.8,0.3-4.8,0.9-6.2s1.6-2.1,3-2.1c1.1,0,2.1,0.5,2.8,1.6c0.7,1.1,1,2.7,1,4.8v2.4h-5v0.6
		c0,1.3,0.1,2.5,0.3,3.1c0.2,0.7,0.5,1,1,1C238,167.4,238.5,166.5,238.6,164.9z M235.9,160.4h2.5V159c0-2-0.4-2.9-1.2-2.9
		c-0.5,0-0.8,0.3-0.9,0.8c-0.2,0.6-0.2,1.4-0.2,2.7v0.7H235.9z"/>
	<path class="st4" d="M242.6,169.5v-2.6h1.3v-10.4h-1.3v-2.5h3.9v3h0.1c0.5-1.2,0.9-2.2,1.4-2.6c0.4-0.4,1.1-0.6,2-0.6v2.9
		c-2.3,0-3.4,1.3-3.4,4.1v6h1.4v2.6h-5.5V169.5z"/>
	<path class="st4" d="M260.2,166.9v2.6h-3.7v-1.3h-0.1c-0.6,1-1.3,1.5-2.4,1.5c-0.9,0-1.6-0.4-2.3-1.3c-0.6-0.9-0.8-2.1-0.8-3.4
		c0-1.5,0.3-2.8,0.9-3.6s1.4-1.2,2.5-1.2c0.8,0,1.5,0.4,2.1,1.1v-2.7c0-1-0.1-1.6-0.3-2c-0.2-0.3-0.5-0.4-0.9-0.4
		c-0.8,0-1.3,0.6-1.4,2l-2.4-0.7c0.2-1.1,0.6-2.1,1.3-2.7c0.7-0.6,1.5-0.9,2.6-0.9c1.1,0,2.1,0.4,2.8,1.1c0.7,0.7,1.1,1.9,1.1,3.2v9
		h1V166.9z M256.4,166.4V163c-0.4-0.5-0.8-0.7-1.3-0.7c-1,0-1.4,0.8-1.4,2.5c0,1.6,0.5,2.5,1.4,2.5
		C255.5,167.3,255.9,167.1,256.4,166.4z"/>
	<path class="st4" d="M261.3,169.5v-2.6h1v-10.4h-1.1v-2.5h3.7v1.2h0.1c0.6-0.9,1.3-1.4,2.2-1.4c0.7,0,1.3,0.3,1.9,1
		c0.4,0.7,0.6,1.6,0.6,2.8v9.3h1v2.6H267v-11.4c0-0.6-0.1-1-0.2-1.3c-0.1-0.2-0.3-0.4-0.6-0.4c-0.3,0-0.6,0.2-0.9,0.5
		c-0.3,0.3-0.4,0.5-0.4,0.6v9.4h1v2.6h-4.5V169.5z"/>
	<path class="st4" d="M291.6,158.5c0,7.5-1.6,11.3-4.8,11.3c-1.6,0-2.9-0.9-3.7-2.8c-0.8-1.9-1.1-4.7-1.1-8.6c0-2.6,0.2-4.7,0.6-6.4
		c0.4-1.6,0.9-3,1.6-3.9c0.7-0.8,1.6-1.3,2.6-1.3c1.5,0,2.7,0.9,3.6,2.9C291.2,151.8,291.6,154.7,291.6,158.5z M285.2,158.7
		c0,3.2,0.1,5.4,0.3,6.6c0.2,1.1,0.6,1.8,1.2,1.8c0.6,0,1-0.6,1.2-1.8s0.3-3.3,0.3-6.5c0-3.5-0.1-5.9-0.3-7
		c-0.2-1.2-0.6-1.8-1.2-1.8c-0.7,0-1.1,0.6-1.3,2C285.3,153.1,285.2,155.4,285.2,158.7z"/>
	<path class="st4" d="M296.8,169.7l-2.6-13.2H293v-2.5h4.5v2.5h-1l1.4,8.3l1.6-10.8h2.4l2,10.8l1.2-8.3h-1.1v-2.5h4.5v2.5h-1.1
		l-2.5,13.2h-2.4l-1.9-10.8l-1.8,10.8L296.8,169.7L296.8,169.7z"/>
	<path class="st4" d="M309.6,169.5v-2.6h1v-10.4h-1.1v-2.5h3.7v1.2h0.1c0.6-0.9,1.3-1.4,2.2-1.4c0.7,0,1.3,0.3,1.9,1
		c0.4,0.7,0.6,1.6,0.6,2.8v9.3h1v2.6h-3.7v-11.4c0-0.6-0.1-1-0.2-1.3c-0.1-0.2-0.3-0.4-0.6-0.4c-0.3,0-0.6,0.2-0.9,0.5
		s-0.4,0.5-0.4,0.6v9.4h1v2.6h-4.5V169.5z"/>
	<path class="st4" d="M326.3,164.9l2.3,0.9c-0.3,1.3-0.8,2.4-1.4,3.1c-0.6,0.7-1.4,1-2.3,1c-1.3,0-2.4-0.6-3.1-2
		c-0.6-1.2-0.9-3.3-0.9-6.1c0-2.8,0.3-4.8,0.9-6.2c0.6-1.3,1.6-2.1,3-2.1c1.1,0,2.1,0.5,2.8,1.6c0.7,1.1,1,2.7,1,4.8v2.4h-5v0.6
		c0,1.3,0.1,2.5,0.3,3.1c0.2,0.7,0.5,1,1,1C325.7,167.4,326.1,166.5,326.3,164.9z M323.6,160.4h2.5V159c0-2-0.4-2.9-1.2-2.9
		c-0.5,0-0.8,0.3-0.9,0.8c-0.2,0.6-0.2,1.4-0.2,2.7v0.7H323.6z"/>
	<path class="st4" d="M339.7,169.5h-3.8V168h-0.1c-0.3,0.6-0.6,1-0.9,1.3c-0.3,0.3-0.7,0.4-1.2,0.4c-1,0-1.9-0.6-2.5-2
		c-0.6-1.3-0.8-3.2-0.8-5.7c0-3,0.2-5.2,0.7-6.5c0.5-1.2,1.3-2,2.5-2c0.8,0,1.6,0.4,2.3,1.3h0.1v-5.2h-1.6v-2.6h4.3v19.7h1.2v2.6
		H339.7z M335.8,162.1v-2.5c0-1.2-0.1-2.2-0.3-2.8c-0.2-0.6-0.6-0.8-1.1-0.8c-0.5,0-0.9,0.3-1.1,1s-0.3,1.9-0.3,3.6v3.5
		c0,2,0.4,2.9,1.3,2.9c0.6,0,0.9-0.3,1.1-0.9C335.8,165.5,335.8,164.2,335.8,162.1z"/>
	<path class="st4" d="M359.9,166.9v2.6h-3.7v-1.3h-0.1c-0.6,1-1.3,1.5-2.4,1.5c-0.9,0-1.6-0.4-2.3-1.3c-0.6-0.9-0.8-2.1-0.8-3.4
		c0-1.5,0.3-2.8,0.9-3.6c0.6-0.8,1.4-1.2,2.5-1.2c0.8,0,1.5,0.4,2.1,1.1v-2.7c0-1-0.1-1.6-0.3-2c-0.2-0.3-0.5-0.4-0.9-0.4
		c-0.8,0-1.3,0.6-1.4,2l-2.4-0.7c0.2-1.1,0.6-2.1,1.3-2.7s1.5-0.9,2.6-0.9c1.1,0,2.1,0.4,2.8,1.1c0.7,0.7,1.1,1.9,1.1,3.2v9h1V166.9
		z M356.2,166.4V163c-0.4-0.5-0.8-0.7-1.3-0.7c-1,0-1.4,0.8-1.4,2.5c0,1.6,0.5,2.5,1.4,2.5C355.4,167.3,355.8,167.1,356.2,166.4z"/>
	<path class="st4" d="M361.1,169.5v-2.6h1v-10.4H361v-2.5h3.7v1.2h0.1c0.6-0.9,1.3-1.4,2.2-1.4c0.7,0,1.3,0.3,1.9,1
		c0.4,0.7,0.6,1.6,0.6,2.8v9.3h1v2.6h-3.7v-11.4c0-0.6-0.1-1-0.2-1.3c-0.1-0.2-0.3-0.4-0.6-0.4c-0.3,0-0.6,0.2-0.9,0.5
		s-0.4,0.5-0.4,0.6v9.4h1v2.6h-4.5V169.5z"/>
	<path class="st4" d="M381.4,169.5h-3.8V168h-0.1c-0.3,0.6-0.6,1-0.9,1.3c-0.3,0.3-0.7,0.4-1.2,0.4c-1,0-1.9-0.6-2.5-2
		c-0.6-1.3-0.8-3.2-0.8-5.7c0-3,0.2-5.2,0.7-6.5c0.5-1.2,1.3-2,2.5-2c0.8,0,1.6,0.4,2.3,1.3h0.1v-5.2h-1.6v-2.6h4.3v19.7h1.2v2.6
		H381.4z M377.4,162.1v-2.5c0-1.2-0.1-2.2-0.3-2.8c-0.2-0.6-0.6-0.8-1.1-0.8c-0.5,0-0.9,0.3-1.1,1s-0.3,1.9-0.3,3.6v3.5
		c0,2,0.4,2.9,1.3,2.9c0.6,0,0.9-0.3,1.1-0.9C377.3,165.5,377.4,164.2,377.4,162.1z"/>
	<path class="st4" d="M402.1,158.5c0,7.5-1.6,11.3-4.8,11.3c-1.6,0-2.9-0.9-3.7-2.8c-0.8-1.9-1.1-4.7-1.1-8.6c0-2.6,0.2-4.7,0.6-6.4
		c0.4-1.6,0.9-3,1.6-3.9c0.7-0.8,1.6-1.3,2.6-1.3c1.5,0,2.7,0.9,3.6,2.9C401.7,151.8,402.1,154.7,402.1,158.5z M395.6,158.7
		c0,3.2,0.1,5.4,0.3,6.6c0.2,1.1,0.6,1.8,1.2,1.8c0.6,0,1-0.6,1.2-1.8s0.3-3.3,0.3-6.5c0-3.5-0.1-5.9-0.3-7
		c-0.2-1.2-0.6-1.8-1.2-1.8c-0.7,0-1.1,0.6-1.3,2C395.7,153.1,395.6,155.4,395.6,158.7z"/>
	<path class="st4" d="M403.5,154.1h3.8v1.5h0.1c0.5-1.1,1.2-1.8,2.2-1.8c1.1,0,2,0.7,2.5,2.1c0.5,1.3,0.8,3.5,0.8,6.3
		c0,2.5-0.2,4.4-0.7,5.7c-0.5,1.3-1.3,2-2.6,2c-0.9,0-1.6-0.5-2.3-1.4h0.1v3.7h1.4v2.6h-5.3v-2.6h1.2v-15.6h-1.2v-2.5H403.5z
		 M407.4,161.4v2.5c0,1.2,0.1,2.2,0.3,2.8c0.2,0.5,0.6,0.8,1.1,0.8s0.9-0.3,1.1-1c0.2-0.6,0.2-1.6,0.2-3v-2.2c0-1.8-0.1-3.1-0.3-3.8
		c-0.2-0.7-0.5-1.1-1.1-1.1c-0.5,0-0.9,0.4-1.1,1.2C407.5,158.5,407.4,159.7,407.4,161.4z"/>
	<path class="st4" d="M420.2,164.9l2.3,0.9c-0.3,1.3-0.8,2.4-1.4,3.1c-0.6,0.7-1.4,1-2.3,1c-1.3,0-2.4-0.6-3.1-2
		c-0.6-1.2-0.9-3.3-0.9-6.1c0-2.8,0.3-4.8,0.9-6.2c0.6-1.3,1.6-2.1,3-2.1c1.1,0,2.1,0.5,2.8,1.6c0.7,1.1,1,2.7,1,4.8v2.4h-5v0.6
		c0,1.3,0.1,2.5,0.3,3.1c0.2,0.7,0.5,1,1,1C419.6,167.4,420.1,166.5,420.2,164.9z M417.4,160.4h2.5V159c0-2-0.4-2.9-1.2-2.9
		c-0.5,0-0.8,0.3-0.9,0.8c-0.2,0.6-0.2,1.4-0.2,2.7v0.7H417.4z"/>
	<path class="st4" d="M424.1,169.5v-2.6h1.3v-10.4h-1.3v-2.5h3.9v3h0.1c0.5-1.2,0.9-2.2,1.4-2.6c0.4-0.4,1.1-0.6,2-0.6v2.9
		c-2.3,0-3.4,1.3-3.4,4.1v6h1.4v2.6h-5.5V169.5z"/>
	<path class="st4" d="M441.8,166.9v2.6H438v-1.3h-0.1c-0.6,1-1.3,1.5-2.4,1.5c-0.9,0-1.6-0.4-2.3-1.3c-0.6-0.9-0.8-2.1-0.8-3.4
		c0-1.5,0.3-2.8,0.9-3.6c0.6-0.8,1.4-1.2,2.5-1.2c0.8,0,1.5,0.4,2.1,1.1v-2.7c0-1-0.1-1.6-0.3-2c-0.2-0.3-0.5-0.4-0.9-0.4
		c-0.8,0-1.3,0.6-1.4,2l-2.4-0.7c0.2-1.1,0.6-2.1,1.3-2.7c0.7-0.6,1.5-0.9,2.6-0.9c1.1,0,2.1,0.4,2.8,1.1c0.7,0.7,1.1,1.9,1.1,3.2v9
		h1V166.9z M437.9,166.4V163c-0.4-0.5-0.8-0.7-1.3-0.7c-1,0-1.4,0.8-1.4,2.5c0,1.6,0.5,2.5,1.4,2.5
		C437.1,167.3,437.5,167.1,437.9,166.4z"/>
	<path class="st4" d="M446.4,156.5v9.1c0,1,0.4,1.5,1.1,1.5c0.3,0,0.6-0.1,1-0.3v2.4c-0.6,0.2-1.2,0.3-2.1,0.3
		c-0.9,0-1.6-0.3-2.1-0.9c-0.4-0.6-0.6-1.6-0.6-3.1v-9.1h-1.2v-2.4h1.2v-2.6c0.9-0.6,1.8-1.2,2.6-2.1v4.5h1.8v2.6H446.4z"/>
	<path class="st4" d="M455.7,164.9l2.3,0.9c-0.3,1.3-0.8,2.4-1.4,3.1c-0.6,0.7-1.4,1-2.3,1c-1.3,0-2.4-0.6-3.1-2
		c-0.6-1.2-0.9-3.3-0.9-6.1c0-2.8,0.3-4.8,0.9-6.2c0.6-1.3,1.6-2.1,3-2.1c1.1,0,2.1,0.5,2.8,1.6c0.7,1.1,1,2.7,1,4.8v2.4h-5v0.6
		c0,1.3,0.1,2.5,0.3,3.1c0.2,0.7,0.5,1,1,1C455,167.4,455.5,166.5,455.7,164.9z M452.9,160.4h2.5V159c0-2-0.4-2.9-1.2-2.9
		c-0.5,0-0.8,0.3-0.9,0.8c-0.2,0.6-0.2,1.4-0.2,2.7v0.7H452.9z"/>
	<path class="st4" d="M469.1,169.5h-3.9V168l0,0c-0.3,0.6-0.6,1-0.9,1.3c-0.3,0.3-0.7,0.4-1.2,0.4c-1,0-1.9-0.6-2.5-2
		c-0.6-1.3-0.8-3.2-0.8-5.7c0-3,0.2-5.2,0.7-6.5c0.5-1.2,1.3-2,2.5-2c0.8,0,1.6,0.4,2.3,1.3h0.1v-5.2h-1.6v-2.6h4.3v19.7h1.2v2.6
		H469.1z M465.1,162.1v-2.5c0-1.2-0.1-2.2-0.3-2.8c-0.2-0.6-0.6-0.8-1.1-0.8c-0.5,0-0.9,0.3-1.1,1s-0.3,1.9-0.3,3.6v3.5
		c0,2,0.4,2.9,1.3,2.9c0.6,0,0.9-0.3,1.1-0.9C465.1,165.5,465.1,164.2,465.1,162.1z"/>
</g>
<g>
	<polyline class="st4" points="461.2,323.9 312.3,263.1 311.3,266.2 270.5,249.1 271.6,246.5 226,228.1 230.1,220.4 274.2,239.6 
		275.5,236.6 316.1,254 315.4,256.5 463.6,317.6 	"/>
	<polyline class="st4" points="463.6,317.7 465.1,318.3 465.6,317.5 472.2,319.9 471.6,321.5 471.6,321.5 472.7,317.9 478.6,320.3 
		474,332.5 468.4,330 469.7,326.3 469.7,326.3 468.9,328.6 461.9,325.7 462.3,324.4 461.2,324 	"/>
	<g>
		<path class="st5" d="M123.1,234.3l-22.7,37.5c0,0-4.7,0.3-11.5,1.3c-7.7,1.3-3.4,6.5-3.4,6.5s7,3.9,17.4,8.1l26.7-42.4
			c0,0,6-10.6,16.1-15.5l-19.8,35.7l4.3,2.1c2.6,1.2,5.9,0.3,7.2-2.7l7.4-12.8c0,0,7.4-16.7,20-12.6c12.6,4.1,12.6,4.1,12.6,4.1
			s8.1-0.1,9.5-4.4c1.3-4.3,2-13.2,2-13.2l32.8,13.1l9.3-20c0,0,3.7-6.4-4-11c-1.9-1.2-24.7-12.2-48.4-20.4L147,175.7
			c0,0-23.1,4.1-10.7,25.4L123.1,234.3z"/>
		<polyline class="st6" points="222.1,236.3 214.1,253.7 143.5,280.9 114.6,267.1 103.6,284.6 		"/>
	</g>
	<polygon class="st7" points="172.8,211.3 168.9,206.5 162.6,207.4 165.8,202.2 163.3,196.3 169.1,197.7 173.7,192.9 174.2,199.4 
		179.7,202 174,204.9 	"/>
	<polygon class="st7" points="194.3,218.7 190.2,214.3 184,215.2 187.3,209.6 184.7,204 190.5,205.1 195.1,200.6 195.8,206.8 
		201.1,209.7 195.5,212.6 	"/>
	<polygon class="st7" points="214.8,226 210.9,221.4 204.9,222.4 208.1,217 205.7,211.3 211.3,212.5 216.1,207.9 216.5,214.3 
		221.7,216.7 216.1,219.6 	"/>
	<polygon class="st7" points="152.1,203.5 148.1,199.1 142.1,200.1 145.1,194.5 142.8,189 148.7,190 153.2,185.6 153.6,192 
		158.9,194.6 153.2,197.3 	"/>
</g>
<path class="st8" d="M73.9,65.1c0,0,2.5-20.9,2.4-27.9c-0.1-7,6.7-15.6,6.7-15.6S97.2,2.5,131.3,8.9c25.5,4.7,30,31.8,30,31.8
	l0.3,2.5c0,0,6,3.4,6.2,4.6c0.2,1.2-0.3,2.4-0.3,2.4s-4.9,4.1-11.4,3.7c-6.5-0.4-4.2,0.2-4.2,0.2l-1.6,4v3c0,0,3.5,7.5,5.6,9.7
	c2.1,2.2,0.5,5.2,0.5,5.2s-3.1,1.1-5.2,0.2c0,0-0.9,3.8-0.7,4.9c0.2,1.1,0.5,1.8,0.3,2.3c-0.3,0.7-0.9,1.1-0.9,1.1l0,0
	c0,0,1,0.6,0.4,1.8c-0.6,1.1-2.3,1.2-2.3,1.2s-1.8,1.2-1.1,3.5c0.6,2.3,1,4.9-0.1,6.6c-1.1,1.5-7.1,3.5-12.2,3.1c-5-0.4-5-0.4-5-0.4
	s0.1,4.7-2.6,6.8c-2.7,2.1-1.8,7.4-1.8,7.4l6.9,20.2l-35.2-17.1L83,95.9c0,0,2.7-4.8,5-12.7c2.4-7.8-1.2-12.8-1.2-12.8L73.9,65.1z"
	/>
<path class="st9" d="M70.2,91.5c0,0-24.5-3.9-38.2,21.2c-13.7,25.2-21.2,62.6-21.2,62.6L9,187.7c0,0-3.8,9.7-2.9,15.6
	c0.9,5.9,5.7,17.4,11.9,23.7c6.2,6.3,10.6,7.1,10.6,7.1s4,16,13.1,17.6c9.1,1.6,24.4-1.1,33.9-5s51.1-8,51.1-8l8.1-2.2
	c0,0,4,1.3,5.9,3.4c1.9,2.1,9.8,5.4,9.8,5.4l8.8,0.8c0,0,4.8-0.6,6-1.6c1.1-0.9,3.1-3.4,3.1-3.4l0.6-3.1c0,0,1.8-0.8,2.3-2.3
	c0.6-1.4,0-3.4,0-3.4l1.4-3.4l2.1-1.5l16.7,8.1l2.9-2.9c0,0-0.2-3.6-1-3.9c-0.8-0.2-23.3-14.4-23.9-14.8c-0.6-0.5-5.5-7.8-11.5-7.7
	c-6.1,0-26.3,4.2-26.3,4.2s-25.9-2.3-33-3c-7.8-0.7-24.4-2.2-24.4-2.2c-0.3-2.1-3-8-3-8c2.2-5.7,6.8-12.8,5.9-22.2
	c-1.1-11-0.2-21.6-0.2-21.6s-0.9,9.4,0.2,21.6c0.5,5,0.2,8.6-5.9,22.2c0,0,2.8,6.4,3,8l57.4,5.2l3.1-9.3l-2.4-6.7
	c0,0-6.7-14.4,13.9-20.2c1.3-0.4,0.1-9.5,0.1-9.5s2.9-5.5,1.8-9.5c-1.1-4-9-23-9-23l-10.6-9.4l-3.4-1.5c0,0-17.6,0.2-20.2-1.5
	c-2.6-1.8-21.4-25-22.1-25.5C82.5,94.1,70.2,91.5,70.2,91.5z"/>
<path class="st10" d="M280.7,239.3c0,0,6.9-4.9,9.5-2.1c2.7,3,7.8,5.2,7.7,5.2c0,0-0.7,2.6-6,2.6l-5.6-2.4L280.7,239.3z"/>
<path class="st9" d="M273.6,250.7c0,0,3,1.3,7.3,1.8c0.5,0.1,4.1-0.8,3.6-3.4c-0.2-1.1-0.4-4.7-0.6-4.9c-1.8-1.9-1.6-3.6-1.3-3.9
	c2.2-2.3,4.3,2.3,5.2,4.6c0.5,1.4,1.2,7.2,1.2,7.2s0.6-0.2,0-4.4c-0.2-1.5-1.1-5.3-0.8-6.3c0.3-0.9,1.4-0.8,1.9-0.7
	c0.9,0.2,2.1,0.3,2.8,3.2c0.2,1,1.1,4.3,1.1,4.3s0.3,4,0.5,5.3c0.1,0.6,0.4-4-0.2-7.5c-0.1-0.8-1.2-3.3-0.5-3.4c0,0,0.7-0.4,1.1-0.4
	c0.9,0.1,1.3-0.2,2.1,1.6c1.4,3.6,2.3,6.4,2.1,9.4c-0.4,5.2,0.5-4.2,0.5-4.2s-1.2-3.1,0-3.4c0.9-0.2,3.5,3.7,3.5,3.7
	s0.7,2.1,0.7,4.9c0,0.3,0.3,3.5,0.2,3.9c-0.6,3.1-0.7,3.4-0.9,3.9c-0.7,1.8-2.1,1.8-2.8,1.3c-0.5-0.3-1.5-1-1.9-1
	c-1,0.2-1.5,0.7-2.6,0.7c-1.6-0.1-2.6-0.9-2.6-0.9s-3.1,1.1-5.5-1.4c0,0-3.5,1-6.7-1.6c-4.9-4.1-13.3-6.8-13-7.3
	c0.5-0.8,2-3.1,2-3.1L273.6,250.7z"/>
<path class="st9" d="M167.5,47.3c0,0,0.8,1.2,0.3,2.3c-0.6,1.2-2.6,2.4-3.6,2.3c-8.9-1.1-31.4-5.2-41.4,1.8c0,0-1.1,7.4-5.7,10.1
	c-4.5,2.7-12.2,6.6-12.2,6.6l-19.9-2.7L74,65.2c0,0,2.2-18.4,3.1-32.9c0.8-12.2,24.4-24.9,36.7-24.7
	C166.4,8.3,155.1,36.9,167.5,47.3z"/>
</svg>
