<svg version="1.1" id="Layer_1" xmlns="http://www.w3.org/2000/svg" xmlns:xlink="http://www.w3.org/1999/xlink" x="0px" y="0px" style="enable-background:new 0 0 595.3 841.9;" xml:space="preserve" viewBox="20.7 282.08 467.13 318.02">
<style type="text/css">
	.st0{fill:#49522B;stroke:#282C20;stroke-width:0.5;stroke-miterlimit:10;}
	.st1{fill:#343D21;stroke:#282C20;stroke-width:0.5;stroke-miterlimit:10;}
	.st2{fill:none;}
	.st3{enable-background:new    ;}
	.st4{fill:#010101;}
	.st5{fill:#010101;stroke:#010101;stroke-miterlimit:10;}
	.st6{fill:none;stroke:#010101;stroke-miterlimit:10;}
	.st7{opacity:0.46;fill:#26AC4A;enable-background:new    ;}
	.st8{fill:#444E28;stroke:#282C20;stroke-width:0.5;stroke-miterlimit:10;}
	.st9{fill:#5A6336;stroke:#282C20;stroke-width:0.5;stroke-miterlimit:10;}
	.st10{fill:#5A6336;stroke:#282C20;stroke-width:0.25;stroke-miterlimit:10;}
</style>
<path class="st0" d="M40.3,418.1c0,0-6.6,75.1,3.7,109.1c4.9,16.4,76.1,10.3,76.1,10.3s39.4-60.5,35.9-95.8s-90-50.6-90-50.6  S48,397.3,40.3,418.1z"/>
<path class="st1" d="M171.4,440.3c0,0,35,5.3,73.8,43.6c11,10.8,41.5,24,41.5,24l-9,14.3c0,0-115.8-26.6-146.5-69.5  s-23-47.4-23-47.4s17.9-21.9,42.8-9.7C164.3,402.2,171.4,440.3,171.4,440.3z"/>
<polygon class="st2" points="130,378.5 594.5,378.5 595.1,431.5 130.6,431.5 "/>
<g class="st3">
	<path class="st4" d="M216.4,388.4l3.7,1.1c0,3.3-0.6,5.9-1.7,7.8c-1.1,1.9-2.6,2.8-4.5,2.8c-2.3,0-4.1-1.3-5.2-3.9   s-1.7-6.6-1.7-11.9c0-11,2-16.5,6-16.5c1.4,0,2.5,0.7,3.2,2h0.1v-1.5h3.6v10.2h-3.6c0-2.1-0.2-3.7-0.7-4.9c-0.5-1.1-1.1-1.7-2-1.7   c-0.6,0-1.1,0.3-1.4,0.8c-0.3,0.5-0.5,1.6-0.6,3.2c-0.1,1.6-0.2,4.2-0.2,7.8c0,5,0.2,8.3,0.5,9.9c0.3,1.6,1,2.4,2,2.4   c0.8,0,1.5-0.6,1.9-1.7S216.4,391.1,216.4,388.4z"/>
	<path class="st4" d="M228.5,400.1c-1.9,0-3.3-0.9-4.2-2.8c-0.9-1.9-1.3-4.8-1.3-8.7c0-4,0.4-6.8,1.3-8.7c0.9-1.8,2.3-2.7,4.2-2.7   c3.7,0,5.6,3.8,5.6,11.5C234.1,396.2,232.2,400.1,228.5,400.1z M228.5,380.8c-0.7,0-1.1,0.5-1.3,1.5c-0.2,1-0.3,3.1-0.3,6.2   c0,2.3,0.1,4,0.2,5.1c0.1,1.1,0.3,1.9,0.5,2.2c0.2,0.4,0.6,0.6,1,0.6c0.7,0,1.2-0.6,1.4-1.8c0.2-1.2,0.3-3.2,0.3-6   c0-3.1-0.1-5.2-0.3-6.2C229.7,381.3,229.2,380.8,228.5,380.8z"/>
	<path class="st4" d="M236.3,399.5v-3.6h1.5v-14.6h-1.6v-3.6h5.3v1.9h0.1c0.8-1.5,1.9-2.2,3.2-2.2c1.3,0,2.2,0.7,3,2.2   c0.9-1.5,2.1-2.2,3.4-2.2c2.6,0,3.9,2,3.9,5.9v12.6h1.5v3.6h-5.2v-16c0-0.9-0.1-1.6-0.2-1.9c-0.2-0.4-0.5-0.5-0.9-0.5   c-0.5,0-1,0.2-1.3,0.7c-0.4,0.4-0.6,0.7-0.6,0.8v13.4h1.5v3.6h-5.2v-16c0-0.9-0.1-1.5-0.3-1.9s-0.5-0.6-1-0.6   c-0.7,0-1.3,0.5-1.9,1.5v13.4h1.5v3.6H236.3z"/>
	<path class="st4" d="M258.3,399.5v-3.6h1.8v-24.1h-1.8v-3.6h5.4v10.9h0.1c0.9-1.3,1.9-2,3.2-2c1.7,0,2.8,0.9,3.5,2.7   c0.7,1.8,1,4.8,1,9.1c0,3.5-0.4,6.2-1.2,8.1s-1.9,2.8-3.5,2.8c-1.3,0-2.3-0.8-3.1-2.5h-0.1v2.2H258.3z M263.7,385.1v5.7   c0,1.8,0.1,3.1,0.4,4c0.3,0.9,0.8,1.3,1.6,1.3c0.7,0,1.2-0.4,1.5-1.3c0.3-0.9,0.4-2.2,0.4-4v-3.7c0-2.4-0.1-4.1-0.4-5.1   c-0.3-1-0.8-1.5-1.5-1.5C264.4,380.6,263.7,382.1,263.7,385.1z"/>
	<path class="st4" d="M287.3,395.9v3.6H282v-1.9h-0.1c-0.8,1.4-1.9,2.1-3.3,2.1c-1.3,0-2.3-0.6-3.2-1.9c-0.8-1.2-1.2-2.9-1.2-4.9   c0-2.2,0.5-3.9,1.4-5.1c0.9-1.2,2.1-1.8,3.5-1.8c1.2,0,2.1,0.5,2.9,1.5v-3.8c0-1.4-0.2-2.4-0.5-2.8c-0.3-0.4-0.8-0.6-1.4-0.6   c-1.2,0-1.9,0.9-2,2.8l-3.4-1c0.3-1.7,0.9-2.9,1.9-3.8c1-0.9,2.2-1.4,3.7-1.4c1.6,0,2.9,0.5,3.9,1.6c1,1.1,1.5,2.6,1.5,4.4v12.7   H287.3z M282,395.2v-4.8c-0.5-0.7-1.2-1-1.8-1c-1.4,0-2.1,1.2-2.1,3.5c0,2.3,0.7,3.4,2.1,3.4C280.8,396.4,281.5,396,282,395.2z"/>
	<path class="st4" d="M294,381.3v12.8c0,1.4,0.5,2.2,1.6,2.2c0.4,0,0.9-0.1,1.5-0.4v3.4c-0.8,0.3-1.8,0.5-2.9,0.5   c-1.4,0-2.3-0.4-3-1.3c-0.6-0.9-0.9-2.3-0.9-4.3v-12.8h-1.8v-3.6h1.8v-3.6c1.2-0.8,2.5-1.8,3.7-2.9v6.4h2.4v3.6H294z"/>
	<path class="st4" d="M314.6,395.7V372h-2.4v-3.8h7.3c2.5,0,4.5,0.9,6,2.6c1.4,1.7,2.2,4.1,2.2,7.1c0,3-0.7,5.3-2,7   s-3.6,2.5-6.8,2.5v8.3h2.4v3.8h-9v-3.8H314.6z M318.8,372v11.7c0.9,0,1.7-0.1,2.3-0.3c0.6-0.2,1.1-0.7,1.5-1.6s0.6-2.1,0.6-3.9   c0-2.3-0.4-3.8-1.1-4.6S320.2,372,318.8,372z"/>
	<path class="st4" d="M328.8,399.5v-3.6h1.8v-14.6h-1.8v-3.6h5.5v4.3h0.1c0.7-1.8,1.3-3,2-3.6c0.6-0.6,1.6-0.9,2.8-0.9v4.1   c-3.2,0-4.8,2-4.8,5.9v8.5h2.1v3.6H328.8z"/>
	<path class="st4" d="M348.2,392.9l3.2,1.3c-0.4,1.9-1.1,3.3-2.1,4.3c-0.9,1-2,1.5-3.2,1.5c-2,0-3.4-0.9-4.3-2.7   c-0.9-1.8-1.4-4.7-1.4-8.6c0-3.9,0.5-6.8,1.4-8.8c0.9-1.9,2.3-2.9,4.3-2.9c1.6,0,2.9,0.8,3.9,2.4c1,1.6,1.5,3.9,1.5,6.8v3.3h-7.2   v0.9c0,2,0.1,3.4,0.4,4.4c0.3,1,0.8,1.4,1.4,1.4C347.4,396.4,348,395.3,348.2,392.9z M344.3,386.6h3.5v-1.9c0-2.7-0.6-4.1-1.8-4.1   c-0.7,0-1.1,0.4-1.4,1.2c-0.2,0.8-0.4,2.1-0.4,3.8V386.6z"/>
	<path class="st4" d="M354.2,399.5V392h3.4c0.1,2.9,0.6,4.4,1.7,4.4c0.8,0,1.2-0.6,1.2-1.9c0-1.1-0.2-1.9-0.6-2.5   c-0.4-0.5-1.2-1.3-2.3-2.2c-1.3-1.1-2.2-2.1-2.8-3.2c-0.6-1-0.8-2.2-0.8-3.5c0-1.6,0.4-3,1.1-4.1c0.7-1.1,1.6-1.6,2.6-1.6   c1.1,0,1.9,0.6,2.6,1.9h0.1v-1.6h3.4v7.2h-3.4c0-1.6-0.1-2.7-0.3-3.2c-0.2-0.5-0.6-0.8-1.2-0.8c-0.8,0-1.2,0.6-1.2,1.8   c0,0.9,0.2,1.6,0.5,2.2c0.4,0.6,1,1.2,2.1,2c1.5,1.1,2.5,2.2,3.1,3.3c0.6,1.1,0.9,2.4,0.9,4c0,1.7-0.4,3-1.1,4.1   c-0.7,1.1-1.7,1.6-2.8,1.6c-1,0-1.9-0.6-2.7-1.9h-0.1v1.6H354.2z"/>
	<path class="st4" d="M366.7,399.5V392h3.4c0.1,2.9,0.6,4.4,1.7,4.4c0.8,0,1.2-0.6,1.2-1.9c0-1.1-0.2-1.9-0.6-2.5   c-0.4-0.5-1.2-1.3-2.3-2.2c-1.3-1.1-2.2-2.1-2.8-3.2c-0.6-1-0.8-2.2-0.8-3.5c0-1.6,0.4-3,1.1-4.1c0.7-1.1,1.6-1.6,2.6-1.6   c1.1,0,1.9,0.6,2.6,1.9h0.1v-1.6h3.4v7.2h-3.4c0-1.6-0.1-2.7-0.3-3.2c-0.2-0.5-0.6-0.8-1.2-0.8c-0.8,0-1.2,0.6-1.2,1.8   c0,0.9,0.2,1.6,0.5,2.2c0.4,0.6,1,1.2,2.1,2c1.5,1.1,2.5,2.2,3.1,3.3c0.6,1.1,0.9,2.4,0.9,4c0,1.7-0.4,3-1.1,4.1   c-0.7,1.1-1.7,1.6-2.8,1.6c-1,0-1.9-0.6-2.7-1.9h-0.1v1.6H366.7z"/>
	<path class="st4" d="M390.8,377.7v18.2h1.6v3.6h-5.3v-1.7h-0.1c-0.9,1.3-1.9,2-3.1,2c-2.3,0-3.5-1.8-3.5-5.4v-13.1h-1.7v-3.6h5.4   v16.1c0,0.9,0.1,1.5,0.2,1.8c0.2,0.4,0.5,0.5,0.9,0.5c0.5,0,0.9-0.2,1.3-0.7s0.6-0.8,0.6-0.9v-13.3h-1.8v-3.6H390.8z"/>
	<path class="st4" d="M394.2,399.5v-3.6h1.8v-14.6h-1.8v-3.6h5.5v4.3h0.1c0.7-1.8,1.3-3,2-3.6c0.6-0.6,1.6-0.9,2.8-0.9v4.1   c-3.2,0-4.8,2-4.8,5.9v8.5h2.1v3.6H394.2z"/>
	<path class="st4" d="M413.6,392.9l3.2,1.3c-0.4,1.9-1.1,3.3-2.1,4.3c-0.9,1-2,1.5-3.2,1.5c-2,0-3.4-0.9-4.3-2.7   c-0.9-1.8-1.4-4.7-1.4-8.6c0-3.9,0.5-6.8,1.4-8.8c0.9-1.9,2.3-2.9,4.3-2.9c1.6,0,2.9,0.8,3.9,2.4c1,1.6,1.5,3.9,1.5,6.8v3.3h-7.2   v0.9c0,2,0.1,3.4,0.4,4.4c0.3,1,0.8,1.4,1.4,1.4C412.8,396.4,413.5,395.3,413.6,392.9z M409.8,386.6h3.5v-1.9   c0-2.7-0.6-4.1-1.8-4.1c-0.7,0-1.1,0.4-1.4,1.2c-0.2,0.8-0.4,2.1-0.4,3.8V386.6z"/>
	<path class="st4" d="M434.4,399.8l-4.5-27.8h-1.7v-3.8h7.5v3.8h-1.7c1.1,6.2,1.9,12.5,2.4,18.8c0.6-6.4,1.4-12.7,2.4-18.8H437v-3.8   h7v3.8h-1.7c1.2,6.6,2.1,12.9,2.5,18.8c0.3-5.7,1.1-11.9,2.2-18.8h-1.7v-3.8h7v3.8h-1.6l-4.3,27.8h-3.4c-1.5-8-2.4-14.1-2.8-18.1   c-0.2,3-1,9-2.4,18.1H434.4z"/>
	<path class="st4" d="M457.2,400.1c-1.9,0-3.3-0.9-4.2-2.8c-0.9-1.9-1.3-4.8-1.3-8.7c0-4,0.5-6.8,1.3-8.7s2.3-2.7,4.2-2.7   c3.7,0,5.6,3.8,5.6,11.5C462.7,396.2,460.9,400.1,457.2,400.1z M457.2,380.8c-0.7,0-1.1,0.5-1.3,1.5c-0.2,1-0.3,3.1-0.3,6.2   c0,2.3,0.1,4,0.2,5.1c0.1,1.1,0.3,1.9,0.5,2.2s0.6,0.6,1,0.6c0.7,0,1.2-0.6,1.4-1.8c0.2-1.2,0.3-3.2,0.3-6c0-3.1-0.1-5.2-0.3-6.2   C458.3,381.3,457.9,380.8,457.2,380.8z"/>
	<path class="st4" d="M464.9,399.5v-3.6h1.8v-14.6h-1.8v-3.6h5.5v4.3h0.1c0.7-1.8,1.3-3,2-3.6c0.6-0.6,1.6-0.9,2.8-0.9v4.1   c-3.2,0-4.8,2-4.8,5.9v8.5h2.1v3.6H464.9z"/>
	<path class="st4" d="M476.1,399.5v-3.6h1.4l2.4-7.4l-2.4-7.2h-1.4v-3.6h4l1.8,6h0.1l1.7-6h3.6v3.6h-1.5l-2.3,6.7l2.7,7.9h1.6v3.6   h-4.1l-1.9-6.7h-0.1l-2.1,6.7H476.1z"/>
</g>
<g class="st3">
	<path class="st4" d="M221.6,442.2l-3.4-19.1h-1.4v-2.6h5.6v2.6H221c1.1,5.7,1.7,10.1,1.8,13.2h0.1c0.1-2.8,0.6-7.2,1.7-13.2h-1.4   v-2.6h5.3v2.6h-1.5l-3.3,19.1H221.6z"/>
	<path class="st4" d="M232.8,437.5l2.2,0.9c-0.3,1.3-0.8,2.3-1.4,3c-0.6,0.7-1.4,1-2.2,1c-1.3,0-2.3-0.6-3-1.9   c-0.6-1.2-0.9-3.2-0.9-5.9c0-2.7,0.3-4.7,0.9-6c0.6-1.3,1.6-2,2.9-2c1.1,0,2,0.5,2.7,1.6s1,2.6,1,4.7v2.3h-4.9v0.6   c0,1.3,0.1,2.4,0.3,3c0.2,0.7,0.5,1,1,1C232.3,439.9,232.7,439.1,232.8,437.5z M230.2,433.1h2.4v-1.3c0-1.9-0.4-2.8-1.2-2.8   c-0.5,0-0.8,0.3-0.9,0.8c-0.2,0.6-0.2,1.4-0.2,2.6V433.1z"/>
	<path class="st4" d="M240.3,429.4v8.8c0,1,0.4,1.5,1.1,1.5c0.3,0,0.6-0.1,1-0.3v2.3c-0.6,0.2-1.2,0.3-2,0.3c-0.9,0-1.6-0.3-2-0.9   c-0.4-0.6-0.6-1.6-0.6-3v-8.8h-1.2V427h1.2v-2.5c0.9-0.6,1.7-1.2,2.5-2v4.4h1.7v2.5H240.3z"/>
	<path class="st4" d="M249.2,437.5l2.2,0.9c-0.3,1.3-0.8,2.3-1.4,3c-0.6,0.7-1.4,1-2.2,1c-1.3,0-2.3-0.6-3-1.9   c-0.6-1.2-0.9-3.2-0.9-5.9c0-2.7,0.3-4.7,0.9-6c0.6-1.3,1.6-2,2.9-2c1.1,0,2,0.5,2.7,1.6c0.7,1.1,1,2.6,1,4.7v2.3h-4.9v0.6   c0,1.3,0.1,2.4,0.3,3c0.2,0.7,0.5,1,1,1C248.6,439.9,249.1,439.1,249.2,437.5z M246.5,433.1h2.4v-1.3c0-1.9-0.4-2.8-1.2-2.8   c-0.5,0-0.8,0.3-0.9,0.8c-0.2,0.6-0.2,1.4-0.2,2.6V433.1z"/>
	<path class="st4" d="M253,442v-2.5h1.3v-10.1H253V427h3.8v2.9h0.1c0.5-1.2,0.9-2.1,1.4-2.5c0.4-0.4,1.1-0.6,1.9-0.6v2.8   c-2.2,0-3.3,1.3-3.3,4v5.8h1.4v2.5H253z"/>
	<path class="st4" d="M270.1,439.5v2.5h-3.6v-1.3h-0.1c-0.6,1-1.3,1.5-2.3,1.5c-0.9,0-1.6-0.4-2.2-1.3s-0.8-2-0.8-3.3   c0-1.5,0.3-2.7,0.9-3.5s1.4-1.2,2.4-1.2c0.8,0,1.5,0.4,2,1.1v-2.6c0-1-0.1-1.6-0.3-1.9c-0.2-0.3-0.5-0.4-0.9-0.4   c-0.8,0-1.3,0.6-1.4,1.9l-2.3-0.7c0.2-1.1,0.6-2,1.3-2.6c0.7-0.6,1.5-0.9,2.5-0.9c1.1,0,2,0.4,2.7,1.1c0.7,0.7,1.1,1.8,1.1,3.1v8.7   H270.1z M266.4,439v-3.3c-0.4-0.5-0.8-0.7-1.3-0.7c-1,0-1.4,0.8-1.4,2.4c0,1.6,0.5,2.4,1.4,2.4C265.6,439.8,266,439.6,266.4,439z"/>
	<path class="st4" d="M271.2,442v-2.5h1v-10.1h-1.1V427h3.6v1.2h0.1c0.6-0.9,1.3-1.4,2.1-1.4c0.7,0,1.3,0.3,1.8,1   c0.4,0.7,0.6,1.6,0.6,2.7v9h1v2.5h-3.6v-11.1c0-0.6-0.1-1-0.2-1.3c-0.1-0.2-0.3-0.4-0.6-0.4c-0.3,0-0.6,0.2-0.9,0.5   c-0.3,0.3-0.4,0.5-0.4,0.6v9.1h1v2.5H271.2z"/>
	<path class="st4" d="M300.6,431.3c0,7.3-1.6,11-4.7,11c-1.6,0-2.8-0.9-3.6-2.7c-0.8-1.8-1.1-4.6-1.1-8.3c0-2.5,0.2-4.6,0.6-6.2   s0.9-2.9,1.6-3.8c0.7-0.8,1.6-1.3,2.5-1.3c1.5,0,2.6,0.9,3.5,2.8C300.2,424.8,300.6,427.6,300.6,431.3z M294.4,431.5   c0,3.1,0.1,5.2,0.3,6.4c0.2,1.1,0.6,1.7,1.2,1.7c0.6,0,1-0.6,1.2-1.7c0.2-1.1,0.3-3.2,0.3-6.3c0-3.4-0.1-5.7-0.3-6.8   c-0.2-1.2-0.6-1.7-1.2-1.7c-0.7,0-1.1,0.6-1.3,1.9C294.5,426.1,294.4,428.3,294.4,431.5z"/>
	<path class="st4" d="M305.6,442.2l-2.5-12.8H302V427h4.4v2.4h-1l1.4,8.1l1.6-10.5h2.3l1.9,10.5l1.2-8.1h-1.1V427h4.4v2.4h-1.1   l-2.4,12.8h-2.3l-1.8-10.5l-1.7,10.5H305.6z"/>
	<path class="st4" d="M318.1,442v-2.5h1v-10.1h-1.1V427h3.6v1.2h0.1c0.6-0.9,1.3-1.4,2.1-1.4c0.7,0,1.3,0.3,1.8,1   c0.4,0.7,0.6,1.6,0.6,2.7v9h1v2.5h-3.6v-11.1c0-0.6-0.1-1-0.2-1.3c-0.1-0.2-0.3-0.4-0.6-0.4c-0.3,0-0.6,0.2-0.9,0.5   c-0.3,0.3-0.4,0.5-0.4,0.6v9.1h1v2.5H318.1z"/>
	<path class="st4" d="M334.3,437.5l2.2,0.9c-0.3,1.3-0.8,2.3-1.4,3c-0.6,0.7-1.4,1-2.2,1c-1.3,0-2.3-0.6-3-1.9   c-0.6-1.2-0.9-3.2-0.9-5.9c0-2.7,0.3-4.7,0.9-6c0.6-1.3,1.6-2,2.9-2c1.1,0,2,0.5,2.7,1.6c0.7,1.1,1,2.6,1,4.7v2.3h-4.9v0.6   c0,1.3,0.1,2.4,0.3,3c0.2,0.7,0.5,1,1,1C333.7,439.9,334.1,439.1,334.3,437.5z M331.6,433.1h2.4v-1.3c0-1.9-0.4-2.8-1.2-2.8   c-0.5,0-0.8,0.3-0.9,0.8c-0.2,0.6-0.2,1.4-0.2,2.6V433.1z"/>
	<path class="st4" d="M347.3,442h-3.7v-1.5h-0.1c-0.3,0.6-0.6,1-0.9,1.3s-0.7,0.4-1.2,0.4c-1,0-1.8-0.6-2.4-1.9   c-0.6-1.3-0.8-3.1-0.8-5.5c0-2.9,0.2-5,0.7-6.3c0.5-1.2,1.3-1.9,2.4-1.9c0.8,0,1.6,0.4,2.2,1.3h0.1v-5h-1.6v-2.5h4.2v19.1h1.2V442z    M343.5,434.8v-2.4c0-1.2-0.1-2.1-0.3-2.7c-0.2-0.6-0.6-0.8-1.1-0.8c-0.5,0-0.9,0.3-1.1,1s-0.3,1.8-0.3,3.5v3.4   c0,1.9,0.4,2.8,1.3,2.8c0.6,0,0.9-0.3,1.1-0.9C343.5,438.1,343.5,436.8,343.5,434.8z"/>
	<path class="st4" d="M366.9,439.5v2.5h-3.6v-1.3h-0.1c-0.6,1-1.3,1.5-2.3,1.5c-0.9,0-1.6-0.4-2.2-1.3s-0.8-2-0.8-3.3   c0-1.5,0.3-2.7,0.9-3.5s1.4-1.2,2.4-1.2c0.8,0,1.5,0.4,2,1.1v-2.6c0-1-0.1-1.6-0.3-1.9c-0.2-0.3-0.5-0.4-0.9-0.4   c-0.8,0-1.3,0.6-1.4,1.9l-2.3-0.7c0.2-1.1,0.6-2,1.3-2.6c0.7-0.6,1.5-0.9,2.5-0.9c1.1,0,2,0.4,2.7,1.1c0.7,0.7,1.1,1.8,1.1,3.1v8.7   H366.9z M363.3,439v-3.3c-0.4-0.5-0.8-0.7-1.3-0.7c-1,0-1.4,0.8-1.4,2.4c0,1.6,0.5,2.4,1.4,2.4C362.5,439.8,362.9,439.6,363.3,439z   "/>
	<path class="st4" d="M368,442v-2.5h1v-10.1h-1.1V427h3.6v1.2h0.1c0.6-0.9,1.3-1.4,2.1-1.4c0.7,0,1.3,0.3,1.8,1   c0.4,0.7,0.6,1.6,0.6,2.7v9h1v2.5h-3.6v-11.1c0-0.6-0.1-1-0.2-1.3c-0.1-0.2-0.3-0.4-0.6-0.4c-0.3,0-0.6,0.2-0.9,0.5   c-0.3,0.3-0.4,0.5-0.4,0.6v9.1h1v2.5H368z"/>
	<path class="st4" d="M387.7,442h-3.7v-1.5h-0.1c-0.3,0.6-0.6,1-0.9,1.3s-0.7,0.4-1.2,0.4c-1,0-1.8-0.6-2.4-1.9   c-0.6-1.3-0.8-3.1-0.8-5.5c0-2.9,0.2-5,0.7-6.3c0.5-1.2,1.3-1.9,2.4-1.9c0.8,0,1.6,0.4,2.2,1.3h0.1v-5h-1.6v-2.5h4.2v19.1h1.2V442z    M383.9,434.8v-2.4c0-1.2-0.1-2.1-0.3-2.7c-0.2-0.6-0.6-0.8-1.1-0.8c-0.5,0-0.9,0.3-1.1,1s-0.3,1.8-0.3,3.5v3.4   c0,1.9,0.4,2.8,1.3,2.8c0.6,0,0.9-0.3,1.1-0.9C383.8,438.1,383.9,436.8,383.9,434.8z"/>
	<path class="st4" d="M407.8,431.3c0,7.3-1.6,11-4.7,11c-1.6,0-2.8-0.9-3.6-2.7c-0.8-1.8-1.1-4.6-1.1-8.3c0-2.5,0.2-4.6,0.6-6.2   s0.9-2.9,1.6-3.8c0.7-0.8,1.6-1.3,2.5-1.3c1.5,0,2.6,0.9,3.5,2.8C407.4,424.8,407.8,427.6,407.8,431.3z M401.5,431.5   c0,3.1,0.1,5.2,0.3,6.4c0.2,1.1,0.6,1.7,1.2,1.7c0.6,0,1-0.6,1.2-1.7c0.2-1.1,0.3-3.2,0.3-6.3c0-3.4-0.1-5.7-0.3-6.8   c-0.2-1.2-0.6-1.7-1.2-1.7c-0.7,0-1.1,0.6-1.3,1.9C401.6,426.1,401.5,428.3,401.5,431.5z"/>
	<path class="st4" d="M409.2,427h3.7v1.5h0.1c0.5-1.1,1.2-1.7,2.1-1.7c1.1,0,1.9,0.7,2.4,2c0.5,1.3,0.8,3.4,0.8,6.1   c0,2.4-0.2,4.3-0.7,5.5c-0.5,1.3-1.3,1.9-2.5,1.9c-0.9,0-1.6-0.5-2.2-1.4H413v3.6h1.4v2.5h-5.1v-2.5h1.2v-15.1h-1.2V427z    M413,434.1v2.4c0,1.2,0.1,2.1,0.3,2.7c0.2,0.5,0.6,0.8,1.1,0.8c0.5,0,0.9-0.3,1.1-1c0.2-0.6,0.2-1.6,0.2-2.9v-2.1   c0-1.7-0.1-3-0.3-3.7c-0.2-0.7-0.5-1.1-1.1-1.1c-0.5,0-0.9,0.4-1.1,1.2C413.1,431.3,413,432.5,413,434.1z"/>
	<path class="st4" d="M425.4,437.5l2.2,0.9c-0.3,1.3-0.8,2.3-1.4,3c-0.6,0.7-1.4,1-2.2,1c-1.3,0-2.3-0.6-3-1.9   c-0.6-1.2-0.9-3.2-0.9-5.9c0-2.7,0.3-4.7,0.9-6c0.6-1.3,1.6-2,2.9-2c1.1,0,2,0.5,2.7,1.6c0.7,1.1,1,2.6,1,4.7v2.3h-4.9v0.6   c0,1.3,0.1,2.4,0.3,3c0.2,0.7,0.5,1,1,1C424.8,439.9,425.3,439.1,425.4,437.5z M422.7,433.1h2.4v-1.3c0-1.9-0.4-2.8-1.2-2.8   c-0.5,0-0.8,0.3-0.9,0.8c-0.2,0.6-0.2,1.4-0.2,2.6V433.1z"/>
	<path class="st4" d="M429.2,442v-2.5h1.3v-10.1h-1.3V427h3.8v2.9h0.1c0.5-1.2,0.9-2.1,1.4-2.5c0.4-0.4,1.1-0.6,1.9-0.6v2.8   c-2.2,0-3.3,1.3-3.3,4v5.8h1.4v2.5H429.2z"/>
	<path class="st4" d="M446.3,439.5v2.5h-3.6v-1.3h-0.1c-0.6,1-1.3,1.5-2.3,1.5c-0.9,0-1.6-0.4-2.2-1.3s-0.8-2-0.8-3.3   c0-1.5,0.3-2.7,0.9-3.5s1.4-1.2,2.4-1.2c0.8,0,1.5,0.4,2,1.1v-2.6c0-1-0.1-1.6-0.3-1.9c-0.2-0.3-0.5-0.4-0.9-0.4   c-0.8,0-1.3,0.6-1.4,1.9l-2.3-0.7c0.2-1.1,0.6-2,1.3-2.6c0.7-0.6,1.5-0.9,2.5-0.9c1.1,0,2,0.4,2.7,1.1c0.7,0.7,1.1,1.8,1.1,3.1v8.7   H446.3z M442.6,439v-3.3c-0.4-0.5-0.8-0.7-1.3-0.7c-1,0-1.4,0.8-1.4,2.4c0,1.6,0.5,2.4,1.4,2.4C441.8,439.8,442.2,439.6,442.6,439z   "/>
	<path class="st4" d="M450.8,429.4v8.8c0,1,0.4,1.5,1.1,1.5c0.3,0,0.6-0.1,1-0.3v2.3c-0.6,0.2-1.2,0.3-2,0.3c-0.9,0-1.6-0.3-2-0.9   c-0.4-0.6-0.6-1.6-0.6-3v-8.8h-1.2V427h1.2v-2.5c0.9-0.6,1.7-1.2,2.5-2v4.4h1.7v2.5H450.8z"/>
	<path class="st4" d="M459.8,437.5l2.2,0.9c-0.3,1.3-0.8,2.3-1.4,3c-0.6,0.7-1.4,1-2.2,1c-1.3,0-2.3-0.6-3-1.9   c-0.6-1.2-0.9-3.2-0.9-5.9c0-2.7,0.3-4.7,0.9-6c0.6-1.3,1.6-2,2.9-2c1.1,0,2,0.5,2.7,1.6c0.7,1.1,1,2.6,1,4.7v2.3h-4.9v0.6   c0,1.3,0.1,2.4,0.3,3c0.2,0.7,0.5,1,1,1C459.2,439.9,459.6,439.1,459.8,437.5z M457.1,433.1h2.4v-1.3c0-1.9-0.4-2.8-1.2-2.8   c-0.5,0-0.8,0.3-0.9,0.8c-0.2,0.6-0.2,1.4-0.2,2.6V433.1z"/>
	<path class="st4" d="M472.8,442H469v-1.5H469c-0.3,0.6-0.6,1-0.9,1.3s-0.7,0.4-1.2,0.4c-1,0-1.8-0.6-2.4-1.9   c-0.6-1.3-0.8-3.1-0.8-5.5c0-2.9,0.2-5,0.7-6.3c0.5-1.2,1.3-1.9,2.4-1.9c0.8,0,1.6,0.4,2.2,1.3h0.1v-5h-1.6v-2.5h4.2v19.1h1.2V442z    M469,434.8v-2.4c0-1.2-0.1-2.1-0.3-2.7c-0.2-0.6-0.6-0.8-1.1-0.8c-0.5,0-0.9,0.3-1.1,1s-0.3,1.8-0.3,3.5v3.4   c0,1.9,0.4,2.8,1.3,2.8c0.6,0,0.9-0.3,1.1-0.9C469,438.1,469,436.8,469,434.8z"/>
</g>
<g>
	<polyline class="st4" points="465.2,591.8 320.7,532.8 319.7,535.8 280.1,519.2 281.2,516.7 236.9,498.8 240.9,491.4 283.7,510    285,507.1 324.4,524 323.7,526.4 467.5,585.7  "/>
	<polyline class="st4" points="467.5,585.8 469,586.4 469.4,585.6 475.8,587.9 475.3,589.5 475.3,589.5 476.3,586 482.1,588.3    477.6,600.1 472.2,597.7 473.4,594.1 473.4,594.1 472.6,596.4 465.8,593.5 466.2,592.3 465.2,591.9  "/>
	<g>
		<path class="st5" d="M137.1,504.9l-22,36.4c0,0-4.6,0.3-11.2,1.3c-7.5,1.3-3.3,6.3-3.3,6.3s6.8,3.8,16.9,7.9l25.9-41.1    c0,0,5.8-10.3,15.6-15l-19.2,34.6l4.2,2c2.5,1.2,5.7,0.3,7-2.6l7.2-12.4c0,0,7.2-16.2,19.4-12.2c12.2,4,12.2,4,12.2,4    s7.9-0.1,9.2-4.3c1.3-4.2,1.9-12.8,1.9-12.8l31.8,12.7l9-19.4c0,0,3.6-6.2-3.9-10.7c-1.8-1.2-24-11.8-47-19.8l-30.5-11.8    c0,0-22.4,4-10.4,24.6L137.1,504.9z"/>
		<polyline class="st6" points="233.2,506.8 225.4,523.7 156.9,550.1 128.8,536.7 118.2,553.7   "/>
	</g>
	<polygon class="st7" points="185.3,482.5 181.5,477.9 175.4,478.8 178.5,473.7 176.1,468 181.7,469.3 186.2,464.7 186.7,471    192,473.5 186.5,476.3  "/>
	<polygon class="st7" points="206.2,489.7 202.2,485.4 196.2,486.3 199.4,480.9 196.9,475.5 202.5,476.5 207,472.2 207.6,478.2    212.8,481 207.3,483.8  "/>
	<polygon class="st7" points="226.1,496.8 222.3,492.3 216.5,493.3 219.6,488.1 217.2,482.5 222.7,483.7 227.3,479.2 227.7,485.4    232.8,487.8 227.3,490.6  "/>
	<polygon class="st7" points="165.2,475 161.3,470.7 155.5,471.7 158.4,466.2 156.2,460.9 161.9,461.9 166.3,457.6 166.7,463.8    171.8,466.3 166.3,469  "/>
</g>
<path class="st8" d="M89.3,340.7c0,0,2.4-20.3,2.3-27.1c-0.1-6.8,6.5-15.1,6.5-15.1s13.9-18.6,46.9-12.4  c24.7,4.6,29.1,30.9,29.1,30.9l0.3,2.4c0,0,5.8,3.3,6,4.5c0.2,1.2-0.3,2.3-0.3,2.3s-4.8,4-11.1,3.6c-6.3-0.4-4.1,0.2-4.1,0.2  l-1.6,3.9l0,2.9c0,0,3.4,7.3,5.4,9.4c2,2.1,0.5,5,0.5,5s-3,1.1-5,0.2c0,0-0.9,3.7-0.7,4.8s0.5,1.7,0.3,2.2c-0.3,0.7-0.9,1.1-0.9,1.1  l0,0c0,0,1,0.6,0.4,1.7s-2.2,1.2-2.2,1.2s-1.7,1.2-1.1,3.4c0.6,2.2,1,4.8-0.1,6.4c-1.1,1.5-6.9,3.4-11.8,3c-4.9-0.4-4.9-0.4-4.9-0.4  s0.1,4.6-2.5,6.6c-2.6,2-1.7,7.2-1.7,7.2l6.7,19.6l-34.2-16.6l-13.3-21c0,0,2.6-4.7,4.9-12.3c2.3-7.6-1.2-12.4-1.2-12.4L89.3,340.7z  "/>
<path class="st9" d="M85.8,366.3c0,0-23.8-3.8-37.1,20.6c-13.3,24.5-20.6,60.7-20.6,60.7l-1.7,12c0,0-3.7,9.4-2.8,15.1  c0.9,5.7,5.5,16.9,11.5,23s10.3,6.9,10.3,6.9s3.9,15.5,12.7,17.1s23.7-1.1,32.9-4.9s49.6-7.8,49.6-7.8l7.9-2.1c0,0,3.9,1.3,5.7,3.3  s9.5,5.2,9.5,5.2l8.5,0.8c0,0,4.7-0.6,5.8-1.6c1.1-0.9,3-3.3,3-3.3l0.6-3c0,0,1.7-0.8,2.2-2.2c0.6-1.4,0-3.3,0-3.3l1.4-3.3l2-1.5  l16.2,7.9l2.8-2.8c0,0-0.2-3.5-1-3.8c-0.8-0.2-22.6-14-23.2-14.4c-0.6-0.5-5.3-7.6-11.2-7.5c-5.9,0-25.5,4.1-25.5,4.1  s-25.1-2.2-32-2.9c-7.6-0.7-23.7-2.1-23.7-2.1c-0.3-2-2.9-7.8-2.9-7.8c2.1-5.5,6.6-12.4,5.7-21.5c-1.1-10.7-0.2-21-0.2-21  s-0.9,9.1,0.2,21c0.5,4.9,0.2,8.3-5.7,21.5c0,0,2.7,6.2,2.9,7.8l55.7,5l3-9l-2.3-6.5c0,0-6.5-14,13.5-19.6c1.3-0.4,0.1-9.2,0.1-9.2  s2.8-5.3,1.7-9.2c-1.1-3.9-8.7-22.3-8.7-22.3l-10.3-9.1l-3.3-1.5c0,0-17.1,0.2-19.6-1.5s-20.8-24.3-21.4-24.7  C97.7,368.8,85.8,366.3,85.8,366.3z"/>
<path class="st10" d="M290,509.7c0,0,6.7-4.8,9.2-2c2.6,2.9,7.6,5,7.5,5c0,0-0.7,2.5-5.8,2.5l-5.4-2.3L290,509.7z"/>
<path class="st9" d="M283.1,520.8c0,0,2.9,1.3,7.1,1.7c0.5,0.1,4-0.8,3.5-3.3c-0.2-1.1-0.4-4.6-0.6-4.8c-1.7-1.8-1.6-3.5-1.3-3.8  c2.1-2.2,4.2,2.2,5,4.5c0.5,1.4,1.2,7,1.2,7s0.6-0.2,0-4.3c-0.2-1.5-1.1-5.1-0.8-6.1c0.3-0.9,1.4-0.8,1.8-0.7c0.9,0.2,2,0.3,2.7,3.1  c0.2,1,1.1,4.2,1.1,4.2s0.3,3.9,0.5,5.1c0.1,0.6,0.4-3.9-0.2-7.3c-0.1-0.8-1.2-3.2-0.5-3.3c0,0,0.7-0.4,1.1-0.4  c0.9,0.1,1.3-0.2,2,1.6c1.4,3.5,2.2,6.2,2,9.1c-0.4,5,0.5-4.1,0.5-4.1s-1.2-3,0-3.3c0.9-0.2,3.4,3.6,3.4,3.6s0.7,2,0.7,4.8  c0,0.3,0.3,3.4,0.2,3.8c-0.6,3-0.7,3.3-0.9,3.8c-0.7,1.7-2,1.7-2.7,1.3c-0.5-0.3-1.5-1-1.8-1c-1,0.2-1.5,0.7-2.5,0.7  c-1.6-0.1-2.5-0.9-2.5-0.9s-3,1.1-5.3-1.4c0,0-3.4,1-6.5-1.6c-4.8-4-12.9-6.6-12.6-7.1c0.5-0.8,1.9-3,1.9-3L283.1,520.8z"/>
<path class="st9" d="M180.2,323.4c0,0,0.8,1.2,0.3,2.2c-0.6,1.2-2.5,2.3-3.5,2.2c-8.6-1.1-30.5-5-40.2,1.7c0,0-1.1,7.2-5.5,9.8  c-4.4,2.6-11.8,6.4-11.8,6.4l-19.3-2.6l-10.8-2.3c0,0,2.1-17.9,3-31.9c0.8-11.8,23.7-24.2,35.6-24  C179.1,285.6,168.1,313.3,180.2,323.4z"/>
</svg>